<?xml version="1.0" encoding="UTF-8" standalone="no"?>
<!-- Created with Inkscape (http://www.inkscape.org/) -->

<svg
   width="210mm"
   height="297mm"
   viewBox="0 0 210 297"
   version="1.1"
   id="svg5"
   sodipodi:docname="drawing.svg"
   inkscape:version="1.2.2 (b0a8486541, 2022-12-01)"
   inkscape:export-filename="drawing.png"
   inkscape:export-xdpi="100.33"
   inkscape:export-ydpi="100.33"
   xmlns:inkscape="http://www.inkscape.org/namespaces/inkscape"
   xmlns:sodipodi="http://sodipodi.sourceforge.net/DTD/sodipodi-0.dtd"
   xmlns="http://www.w3.org/2000/svg"
   xmlns:svg="http://www.w3.org/2000/svg">
  <sodipodi:namedview
     id="namedview7"
     pagecolor="#ffffff"
     bordercolor="#000000"
     borderopacity="0.25"
     inkscape:showpageshadow="2"
     inkscape:pageopacity="0.0"
     inkscape:pagecheckerboard="0"
     inkscape:deskcolor="#d1d1d1"
     inkscape:document-units="mm"
     showgrid="false"
     inkscape:zoom="0.26614466"
     inkscape:cx="1566.8171"
     inkscape:cy="811.58872"
     inkscape:window-width="1920"
     inkscape:window-height="1011"
     inkscape:window-x="0"
     inkscape:window-y="32"
     inkscape:window-maximized="1"
     inkscape:current-layer="layer1" />
  <defs
     id="defs2" />
  <g
     inkscape:label="Layer 1"
     inkscape:groupmode="layer"
     id="layer1">
    <path
       style="fill:#000000;stroke-width:0.189812"
       id="path175"
       d="m 30.339091,241.41871 c 1.082337,0.027 2.145609,0.004 3.205707,-0.27443 0.899147,-0.25167 1.731782,-0.76137 2.375274,-1.57966 0.163992,-0.20854 0.303007,-0.44406 0.45451,-0.6661 1.180512,-2.14722 1.888876,-4.62969 2.618643,-7.04011 0.769504,-2.63194 1.347583,-5.33545 1.848405,-8.05858 0.493052,-2.64017 0.789618,-5.32657 1.071135,-8.00966 0.334058,-3.27392 0.716262,-6.54183 1.292569,-9.76681 0.412752,-2.51152 1.179807,-4.87651 2.104237,-7.16603 1.098916,-2.79347 2.587695,-5.31484 3.966619,-7.90724 1.331867,-2.65585 2.735516,-5.24918 4.32052,-7.69216 1.796661,-2.68722 3.868585,-5.081 6.027305,-7.33282 1.349973,-1.30562 2.943308,-2.31679 4.614771,-2.87142 0.274343,-0.091 0.557916,-0.13449 0.836874,-0.20173 0.252474,-0.0317 0.503631,-0.0998 0.757423,-0.0951 0.4471,0.008 1.002367,0.18133 1.409767,0.39912 0.239161,0.12786 0.919611,0.60319 0.687644,0.4571 -1.683827,-1.06049 -1.966009,-1.46295 -0.898928,-0.32288 1.133049,1.33761 1.826778,3.06017 2.478345,4.77931 0.618574,1.7353 0.951141,3.58703 1.278441,5.42714 0.264483,1.59076 0.51997,3.18139 0.654796,4.79683 0.120816,2.0347 0.113616,4.07712 0.12355,6.11597 -0.02513,2.82741 0.0059,5.65196 0.145569,8.47456 0.205084,3.06444 0.57914,6.11084 0.99828,9.14179 0.270017,2.43528 0.782597,4.80736 1.344499,7.16257 0.443677,1.78773 0.889664,3.57575 1.432498,5.32331 0.448832,1.37418 1.014471,2.68808 1.60466,3.97931 0.629406,1.36617 1.293316,2.70975 1.994249,4.02353 0.729598,1.35987 1.625799,2.55875 2.601541,3.66077 0.577259,0.63161 1.24281,1.12763 1.913536,1.5975 2.836858,1.98732 1.828363,1.3872 3.42525,2.29468 1.313029,0.66003 2.689038,1.13397 4.060073,1.58405 0.825428,0.27669 1.618682,0.66883 2.454371,0.90165 0.407655,0.0923 0.810936,0.0923 1.209197,0.22924 0,0 -2.055797,-1.90715 -2.055797,-1.90715 v 0 c -0.396302,-0.10064 -0.807889,-0.0823 -1.199894,-0.21949 -0.819023,-0.25419 -1.607375,-0.62844 -2.425609,-0.88662 -1.359135,-0.45912 -2.731725,-0.90814 -4.019736,-1.6164 -1.140007,-0.68407 -1.073942,-0.66826 0.926643,0.73361 0.167312,0.11725 -0.329664,-0.24461 -0.495674,-0.36455 -0.391061,-0.28251 -0.611177,-0.4144 -0.981575,-0.73902 -0.157801,-0.13829 -0.305303,-0.29314 -0.457947,-0.43971 -0.989863,-1.07096 -1.89314,-2.25037 -2.632666,-3.59208 -0.707502,-1.30079 -1.361836,-2.64403 -1.994517,-4.00024 -0.593626,-1.28019 -1.158626,-2.58424 -1.623806,-3.94175 -0.563327,-1.73933 -1.012831,-3.52634 -1.46318,-5.31277 -0.573484,-2.35051 -1.107535,-4.71656 -1.389329,-7.14958 -0.428683,-3.01928 -0.797857,-6.05694 -1.007935,-9.11109 -0.138992,-2.81535 -0.172351,-5.63212 -0.141375,-8.45226 0.0046,-2.03761 0.03516,-4.07876 -0.06723,-6.11365 -0.121096,-1.63367 -0.39845,-3.23443 -0.6621,-4.84143 -0.33023,-1.85359 -0.641411,-3.72705 -1.249053,-5.48321 -0.649523,-1.74491 -1.335861,-3.50116 -2.444408,-4.89529 -1.332744,-1.54678 -0.570189,-0.76163 -3.404328,-2.75338 -0.915302,-0.64324 -1.917026,-0.85217 -2.95261,-0.58777 -0.281882,0.0802 -0.568373,0.13947 -0.845647,0.24063 -1.681538,0.61345 -3.301889,1.61908 -4.650728,2.98027 -2.136643,2.30219 -4.207593,4.71554 -6.025357,7.39707 -0.30442,0.4557 -0.620272,0.90048 -0.913256,1.36711 -1.264167,2.01338 -2.309765,4.21266 -3.417254,6.35212 -1.393721,2.59534 -2.906212,5.11294 -4.020369,7.91072 -0.939707,2.31049 -1.710632,4.70194 -2.116053,7.24296 -0.567495,3.23591 -0.934628,6.51532 -1.294207,9.79349 -0.295872,2.66891 -0.608388,5.33875 -1.086407,7.97025 -0.485274,2.71568 -1.045415,5.41301 -1.815307,8.03348 -0.7225,2.37297 -1.42757,4.82302 -2.620377,6.91574 -0.147748,0.20642 -0.283992,0.42587 -0.443245,0.61926 -0.632886,0.76855 -1.442399,1.22043 -2.30859,1.44247 -1.05739,0.24335 -2.121389,0.25235 -3.195414,0.20684 0,0 2.083008,1.83775 2.083008,1.83775 z" />
    <ellipse
       id="path177"
       style="fill:#000000;stroke:#000000;stroke-width:0.189812"
       cx="15.471566"
       cy="240.60133"
       rx="0.030478602"
       ry="0.037010938" />
    <path
       style="fill:#000000;stroke-width:0.189812"
       id="path179"
       d="m 15.915501,247.77554 c 2.77687,0.34106 5.550143,0.69207 8.33569,0.91739 3.15227,0.30045 6.310085,0.4867 9.470779,0.58038 3.011354,0.12507 6.020341,-0.036 9.026141,-0.24171 2.727873,-0.20214 5.460089,-0.28159 8.192342,-0.32311 2.595663,-0.0325 5.191489,-0.0316 7.787257,-0.0322 2.890066,-1.2e-4 5.780134,-0.003 8.6702,-7.9e-4 3.044653,0.0573 6.084629,-0.0282 9.124593,-0.22511 2.339329,-0.12752 4.676634,-0.28835 7.01457,-0.44731 2.414457,-0.0272 4.812599,0.47719 7.204238,0.83353 3.053739,0.41942 6.120993,0.64473 9.190708,0.79191 2.821381,0.004 5.632971,-0.3671 8.447931,-0.57152 1.86057,-0.18041 3.72205,-0.34022 5.58746,-0.42138 0.1851,7.9e-4 0.37019,0.002 0.55529,0.002 0,0 -2.06299,-1.81642 -2.06299,-1.81642 v 0 c -0.18292,0.006 -0.36585,0.0103 -0.54877,0.0155 -1.85084,0.10901 -3.6977,0.28263 -5.5444,0.46696 -2.80566,0.22949 -5.61105,0.60236 -8.425757,0.55363 -3.067716,-0.13138 -6.134267,-0.3536 -9.181776,-0.81536 -2.408702,-0.35694 -4.824916,-0.8778 -7.257472,-0.81315 -2.323392,0.17496 -4.646967,0.33679 -6.971726,0.48286 -3.037952,0.20264 -6.075437,0.26159 -9.117985,0.21095 -2.893287,8e-4 -5.786573,-0.005 -8.679858,-0.008 -2.599584,-0.002 -5.199309,-0.009 -7.798763,0.0275 -2.727629,0.0559 -5.455275,0.14373 -8.178411,0.3507 -3.003758,0.2059 -6.010541,0.35461 -9.019526,0.21778 -3.14937,-0.0935 -6.296529,-0.26605 -9.437539,-0.56695 -2.823875,-0.241 -5.635814,-0.60147 -8.444917,-1.02535 0,0 2.062691,1.85632 2.062691,1.85632 z" />
    <path
       style="fill:#000000;stroke-width:0.189812"
       id="path181"
       d="m 72.330351,212.89374 c 0.180971,1.18657 0.28988,2.38716 0.361128,3.59012 0.09362,1.3901 0.05299,2.77967 -0.03665,4.16753 -0.03665,0.91206 -0.163705,1.81086 -0.265336,2.71402 -0.01191,0.12087 -0.02383,0.24175 -0.03581,0.36262 0,0 2.280054,1.45001 2.280054,1.45001 v 0 c 0.01035,-0.11972 0.0207,-0.23944 0.03105,-0.35917 0.09429,-0.91283 0.2344,-1.8187 0.255272,-2.74075 0.07674,-1.39955 0.13176,-2.80062 0.06152,-4.20295 -0.07491,-1.20868 -0.1936,-2.412 -0.341701,-3.61072 0,0 -2.309519,-1.37071 -2.309519,-1.37071 z" />
    <path
       style="fill:#000000;stroke-width:0.189812"
       id="path183"
       d="m 71.728575,230.58058 c 0.108095,1.18928 0.153106,2.38549 0.187038,3.58078 0.0026,0.12709 0.0059,0.2542 0.0085,0.3813 0,0 2.295808,1.40814 2.295808,1.40814 v 0 c -0.0046,-0.12895 -0.0092,-0.2579 -0.0138,-0.38685 -0.04837,-1.19768 -0.10874,-2.39454 -0.170965,-3.59125 0,0 -2.306569,-1.39212 -2.306569,-1.39212 z" />
    <path
       style="fill:#000000;stroke-width:0.189812"
       id="path185"
       d="m 71.473075,242.25907 c -0.0077,0.99622 0.01536,1.98784 0.08214,2.98061 0.02858,0.49428 0.07833,0.98835 0.07388,1.48439 0,0 2.301023,1.43373 2.301023,1.43373 v 0 c 0.01842,-0.51025 -0.04564,-1.01848 -0.07647,-1.52669 -0.07614,-0.98245 -0.125009,-1.9641 -0.08493,-2.95166 0,0 -2.295646,-1.42038 -2.295646,-1.42038 z" />
    <path
       style="fill:#000000;stroke-width:0.189812"
       id="path187"
       d="m 72.32582,249.3887 c -0.102236,0.59757 -0.202584,1.19345 -0.254523,1.80066 0,0 2.278752,1.44001 2.278752,1.44001 v 0 c 0.03301,-0.59551 0.12926,-1.17811 0.247062,-1.75761 0,0 -2.271291,-1.48306 -2.271291,-1.48306 z" />
    <path
       style="fill:#000000;stroke-width:0.189812"
       id="path189"
       d="m 72.238551,258.36993 c 1.353854,0.26196 2.697774,0.60575 4.0076,1.09918 1.006816,0.38979 1.939532,1.56306 -1.542806,-1.1759 -0.03958,-0.0311 0.05612,-0.1032 0.05137,-0.16021 -0.0082,-0.0984 -0.165814,-0.0191 -0.244184,0.008 -0.727684,0.31782 -1.309468,1.00045 -1.894045,1.59404 -0.732938,0.79291 -1.427341,1.63424 -2.074423,2.53047 -0.650772,0.96531 -1.25718,1.97107 -1.877573,2.96435 -0.999967,1.41184 -1.516289,0.53269 1.864273,2.42766 0.170704,0.0957 0.374727,-0.0381 0.562247,-0.0547 0.2355,-0.021 0.471195,-0.0384 0.706793,-0.0576 1.483954,-0.0521 2.979568,-0.0207 4.447976,0.26476 0.529975,0.12266 0.28333,0.0466 0.742247,0.2166 0,0 -2.039027,-1.89953 -2.039027,-1.89953 v 0 c -0.466586,-0.13 -0.217974,-0.0697 -0.746902,-0.17419 -1.47913,-0.22278 -2.972915,-0.25058 -4.461552,-0.19972 -0.23945,0.0157 -0.478819,0.0333 -0.718352,0.047 -0.192347,0.0111 -0.701173,-0.15189 -0.577252,0.027 1.559842,2.25289 1.542551,2.25929 2.420347,0.98767 0.603339,-0.99882 1.213163,-1.98958 1.863037,-2.94544 0.642224,-0.88054 1.326166,-1.71344 2.055211,-2.48854 0.565066,-0.568 1.133927,-1.22124 1.857737,-1.46159 1.661351,-0.51275 -1.436885,-1.98961 -2.414274,-2.3417 -1.329129,-0.45643 -2.683635,-0.7899 -4.043368,-1.0814 0,0 2.054951,1.87402 2.054951,1.87402 z" />
    <path
       style="fill:#000000;stroke-width:0.189812"
       id="path191"
       d="m 56.587037,245.76791 c 0.137812,2.14667 0.173911,4.30066 0.197728,6.4529 0.0017,0.25911 0.0033,0.51821 0.005,0.77732 0,0 2.264202,1.39494 2.264202,1.39494 v 0 c -0.0057,-0.26199 -0.01152,-0.52397 -0.01727,-0.78595 -0.04845,-2.14869 -0.09627,-4.29741 -0.16014,-6.44553 0,0 -2.289525,-1.39368 -2.289525,-1.39368 z" />
    <path
       style="fill:#000000;stroke-width:0.189812"
       id="path193"
       d="m 53.627434,256.96368 c -0.407453,1.33003 -0.634252,2.75641 -0.572393,4.18029 0.0132,0.30379 0.05605,0.60461 0.08408,0.90691 0.220478,1.59978 0.910611,2.9042 1.861703,4.00317 0.958528,0.78583 2.706719,2.55377 4.07716,2.12828 0.120769,-0.0375 0.231544,-0.11223 0.347316,-0.16835 0.746042,-0.63894 1.11138,-1.67866 1.383874,-2.6989 0.446521,-1.77184 0.14204,-3.54664 -0.379415,-5.23391 -1.065107,-2.81981 -2.395444,-3.32968 -4.664263,-4.90662 -0.616495,-0.23443 -1.518224,-0.75304 -2.089181,-0.097 -0.108246,0.12439 -0.176555,0.29161 -0.264834,0.43741 -0.266813,0.60196 -0.330565,1.25816 -0.394359,1.92387 0,0 2.256808,1.4335 2.256808,1.4335 v 0 c 0.0493,-0.61122 0.09776,-1.21299 0.341763,-1.76597 0.07035,-0.10671 0.122846,-0.2352 0.211043,-0.32013 0.483835,-0.46594 1.454301,0.11261 1.926823,0.32792 -0.569365,-0.41295 -1.129867,-0.84447 -1.708096,-1.23884 -0.15868,-0.10823 0.304071,0.24374 0.447812,0.37929 0.715015,0.67426 1.267087,1.53366 1.64157,2.53505 0.53962,1.6094 0.878835,3.32155 0.443317,5.03426 -0.253747,0.91471 -0.569646,1.91387 -1.279743,2.4404 -0.354811,0.11912 -0.647315,0.1529 -1.012529,0.0448 -0.128342,-0.038 -0.486237,-0.23935 -0.376585,-0.14992 0.199125,0.16247 2.788115,2.02495 1.457619,1.0672 -0.982275,-1.01371 -1.704251,-2.25263 -1.960101,-3.8152 -0.03294,-0.29132 -0.08117,-0.58069 -0.09881,-0.87396 -0.08266,-1.37445 0.123851,-2.7651 0.558256,-4.033 0,0 -2.238836,-1.54057 -2.238836,-1.54057 z" />
    <path
       style="fill:#000000;stroke-width:0.189812"
       id="path195"
       d="m 57.125667,264.6978 c 0.35985,-0.78436 0.843918,-1.46709 1.319903,-2.14854 0,0 -2.180096,-1.59194 -2.180096,-1.59194 v 0 c -0.483186,0.69686 -0.972254,1.39322 -1.364302,2.17314 0,0 2.224495,1.56734 2.224495,1.56734 z" />
    <path
       style="fill:#000000;stroke-width:0.189812"
       id="path197"
       d="m 75.031511,223.80183 c -0.864262,0.63815 -1.690152,1.34028 -2.48883,2.0927 -0.453266,0.3957 -0.23591,0.20507 -0.652237,0.57161 0,0 2.168326,1.66823 2.168326,1.66823 v 0 c 0.409674,-0.37376 0.19457,-0.17831 0.645499,-0.58606 0.789837,-0.74776 1.608371,-1.44961 2.485822,-2.04001 0,0 -2.15858,-1.70647 -2.15858,-1.70647 z" />
    <path
       style="fill:#000000;stroke-width:0.189812"
       id="path199"
       d="m 77.978255,229.20244 c -1.053689,0.99364 -2.139121,1.93407 -3.284825,2.76472 -0.614316,0.43442 -0.315986,0.23378 -0.893336,0.60555 0,0 2.140748,1.6969 2.140748,1.6969 v 0 c 0.572664,-0.39118 0.276892,-0.18253 0.886071,-0.62854 1.145261,-0.86289 2.233122,-1.82499 3.332044,-2.77113 0,0 -2.180702,-1.6675 -2.180702,-1.6675 z" />
    <path
       style="fill:#000000;stroke-width:0.189812"
       id="path201"
       d="m 78.810916,233.877 c -1.377773,1.12082 -2.762128,2.2299 -4.157836,3.31866 -1.136499,0.94498 -2.35151,1.77914 -3.37908,2.90183 0,0 2.175188,1.63242 2.175188,1.63242 v 0 c 0.983072,-1.14266 2.181919,-1.96933 3.299609,-2.89746 1.408378,-1.08242 2.799177,-2.20162 4.223173,-3.2519 0,0 -2.161054,-1.70355 -2.161054,-1.70355 z" />
    <path
       style="fill:#000000;stroke-width:0.189812"
       id="path203"
       d="m 82.486086,238.2004 c -1.569069,0.8994 -3.169933,1.7141 -4.766162,2.53924 -0.888695,0.43815 -0.468858,0.22256 -1.260954,0.64259 0,0 2.117956,1.70865 2.117956,1.70865 v 0 c 0.773282,-0.42702 0.361811,-0.20622 1.235877,-0.65831 1.601613,-0.84831 3.215087,-1.66244 4.812228,-2.52327 0,0 -2.138945,-1.7089 -2.138945,-1.7089 z" />
    <path
       style="fill:#000000;stroke-width:0.189812"
       id="path205"
       d="m 87.072176,241.77595 c -0.902796,0.52009 -1.783007,1.09494 -2.682222,1.62407 0,0 2.116603,1.69466 2.116603,1.69466 v 0 c 0.900295,-0.53745 1.78841,-1.1087 2.711595,-1.58695 0,0 -2.145976,-1.73178 -2.145976,-1.73178 z" />
    <path
       style="fill:#000000;stroke-width:0.189812"
       id="path207"
       d="m 40.340309,216.78871 c 0.01814,1.40067 0.0118,2.80159 0.0123,4.20238 -0.02682,1.4784 0.01895,2.95284 0.09723,4.42769 0.01018,0.1897 0.02037,0.3794 0.03055,0.5691 0,0 2.28612,1.38917 2.28612,1.38917 v 0 c -0.01262,-0.19088 -0.02525,-0.38178 -0.03787,-0.57267 -0.09195,-1.46926 -0.142174,-2.93719 -0.110012,-4.41124 5.17e-4,-1.39571 -0.0059,-2.79156 0.0123,-4.18714 0,0 -2.290631,-1.41729 -2.290631,-1.41729 z" />
    <path
       style="fill:#000000;stroke-width:0.189812"
       id="path209"
       d="m 41.995907,233.05812 c -0.159792,0.9392 -0.273306,1.88871 -0.355352,2.84222 -0.06862,1.01384 -0.05083,2.03248 -0.05088,3.0487 -5.17e-4,0.20677 -8.46e-4,0.41353 -0.0014,0.62029 0,0 2.274119,1.40722 2.274119,1.40722 v 0 c -3.44e-4,-0.20703 -5.16e-4,-0.41405 -8.46e-4,-0.62107 0.0035,-1.00397 0.0036,-2.00933 0.05817,-3.01154 0.06713,-0.94198 0.163911,-1.88322 0.347472,-2.80344 0,0 -2.271333,-1.48238 -2.271333,-1.48238 z" />
    <path
       style="fill:#000000;stroke-width:0.189812"
       id="path211"
       d="m 41.579696,246.23819 c 0.0017,0.14673 0.0034,0.29345 0.0051,0.44019 0,0 2.287796,1.41553 2.287796,1.41553 v 0 c 0.0017,-0.14464 0.0034,-0.28927 0.0051,-0.43391 0,0 -2.297956,-1.42181 -2.297956,-1.42181 z" />
    <path
       style="fill:#000000;stroke-width:0.189812"
       id="path213"
       d="m 31.482504,239.92848 c -0.145688,1.52489 -0.340802,3.04391 -0.576655,4.55215 0,0 2.247443,1.45356 2.247443,1.45356 v 0 c 0.221557,-1.51728 0.402689,-3.04216 0.611406,-4.56205 0,0 -2.282194,-1.44366 -2.282194,-1.44366 z" />
    <path
       style="fill:#000000;stroke-width:0.189812"
       id="path215"
       d="m 37.905255,232.54686 c 0.405031,1.91778 0.495215,3.90885 0.584175,5.87814 0.03788,1.15419 0.02271,0.60276 0.04702,1.65423 0,0 2.268352,1.39093 2.268352,1.39093 v 0 c -0.03893,-1.06412 -0.01712,-0.50641 -0.06627,-1.67311 -0.09617,-1.97622 -0.189689,-3.96384 -0.510465,-5.90878 0,0 -2.322805,-1.34141 -2.322805,-1.34141 z" />
    <path
       style="fill:#000000;stroke-width:0.189812"
       id="path217"
       d="m 41.034125,241.7227 c -0.875502,1.02635 -1.767785,2.03151 -2.656128,3.04146 0,0 2.151374,1.61141 2.151374,1.61141 v 0 c 0.886836,-1.02373 1.779588,-2.04025 2.701213,-3.01797 0,0 -2.196459,-1.6349 -2.196459,-1.6349 z" />
    <ellipse
       id="path219"
       style="fill:#000000;stroke:#000000;stroke-width:0.189812"
       cx="52.529175"
       cy="246.38936"
       rx="0.030478602"
       ry="0.037010938" />
    <path
       style="fill:#000000;stroke-width:0.189812"
       id="path223"
       d="m 28.676139,117.46564 c 2.02184,-1.14741 2.991887,-2.83848 4.133747,-5.08038 0.897951,-2.03928 1.612473,-4.25837 1.865565,-6.56639 0.144727,-1.3198 0.259502,-4.30862 0.318277,-5.58956 0.029,-1.000482 0.06013,-2.000875 0.08701,-3.001443 0.07914,-2.946041 0.06491,-3.757128 0.239204,-6.732899 0.209791,-3.581873 0.561532,-7.142277 0.935898,-10.702866 0.593067,-4.512512 1.371643,-9.086404 2.972097,-13.254591 0.212847,-0.554338 0.463729,-1.085948 0.695596,-1.628921 0.253542,-0.445259 0.465155,-0.930422 0.760624,-1.335777 1.154402,-1.583726 3.030249,-2.891643 4.695997,-3.482792 0.349202,-0.123927 0.712662,-0.178238 1.068991,-0.267357 0.335164,9.8e-4 0.672706,-0.04547 1.005493,0.0029 0.220429,0.03206 1.997073,0.499954 1.966311,1.01066 -0.02596,0.431011 -1.053613,-0.822278 -1.017601,-0.392334 0.05501,0.656766 0.756297,0.949991 1.106597,1.454827 0.386655,0.557232 0.734795,1.152254 1.102192,1.728381 2.383291,3.908379 3.978366,8.377548 5.526063,12.829843 1.231691,3.68646 2.238614,7.476491 2.981603,11.349934 0.647506,3.659289 1.075324,7.36618 1.68834,11.033884 0.479116,2.775631 1.101761,5.519001 1.913494,8.179701 0.556207,1.82314 0.796676,2.39432 1.455173,4.1793 1.060808,2.71263 2.276954,5.33626 3.808035,7.69829 0.875494,1.20174 2.081349,2.47582 3.453641,2.44804 0,0 -2.067886,-1.85594 -2.067886,-1.85594 v 0 c -1.005089,-0.2402 -0.510798,-0.16488 1.600571,1.32338 0.110758,0.0781 -0.214544,-0.17188 -0.310133,-0.27538 -0.122496,-0.13263 -0.227812,-0.28695 -0.341721,-0.43042 -0.28542,-0.419 -0.703013,-1.02198 -0.956038,-1.4431 -1.170878,-1.94872 -2.105782,-4.09435 -2.992402,-6.24613 -0.642,-1.73052 -0.912414,-2.38198 -1.456175,-4.15061 -0.813232,-2.6451 -1.437764,-5.37389 -1.91273,-8.13633 -0.613738,-3.664758 -1.031488,-7.369468 -1.664348,-11.02909 -0.746051,-3.901758 -1.77902,-7.710783 -3.014946,-11.4249 -1.552507,-4.458428 -3.132703,-8.945415 -5.485296,-12.888653 -0.366952,-0.592797 -1.623487,-2.715898 -2.153459,-3.22537 -1.008254,-0.96925 -2.111876,-1.783967 -3.196373,-2.623111 -1.040172,-0.804847 -1.872846,-1.00689 -3.086823,-0.842893 -0.359166,0.104772 -0.725907,0.176785 -1.0775,0.314314 -1.642492,0.642475 -3.629364,2.062783 -4.766576,3.643693 -0.299829,0.416809 -0.507656,0.919314 -0.761482,1.378972 -0.228109,0.554463 -0.475667,1.097742 -0.684326,1.663388 -1.559504,4.227606 -2.314655,8.840874 -2.898397,13.390102 -0.370976,3.564625 -0.725476,7.131533 -0.950471,10.715276 -0.166884,2.658147 -0.193196,4.075626 -0.275043,6.717454 -0.03089,0.997111 -0.06091,1.994259 -0.09137,2.991388 -0.102484,2.00084 -0.142983,3.52842 -0.384282,5.49925 -0.277951,2.27018 -0.920356,4.46302 -1.838446,6.46332 -1.113482,2.13704 -2.117884,3.8819 -4.124248,4.84295 0,0 2.127548,1.74796 2.127548,1.74796 z" />
    <path
       style="fill:#000000;stroke-width:0.189812"
       id="path225"
       d="m 19.400231,122.0011 c 0.469423,0.0461 0.938189,0.10349 1.408269,0.13837 1.504424,0.11165 3.781942,0.20845 5.227108,0.27088 1.558178,0.0673 6.341361,0.26489 7.75839,0.29634 1.621576,0.036 3.243564,0.0353 4.865347,0.0529 10.582839,0.0622 21.14405,-0.93017 31.692954,-1.84356 5.329451,-0.5079 10.662397,-0.9229 16.009217,-0.94173 1.537136,-0.005 3.073133,0.0662 4.609377,0.11619 0.500706,0.0118 0.256332,0.006 0.733133,0.0162 0,0 -2.076096,-1.83737 -2.076096,-1.83737 v 0 c -0.472347,-0.007 -0.23009,-0.003 -0.726779,-0.0135 -1.505132,-0.0332 -3.01057,-0.0469 -4.515897,-0.0213 -5.27248,0.1151 -10.528313,0.59653 -15.779986,1.16446 -10.529184,1.01842 -21.079238,2.01126 -31.650346,1.85251 -1.641214,-0.0369 -3.282733,-0.0576 -4.923647,-0.11071 -2.31899,-0.0751 -5.504286,-0.25155 -7.856043,-0.38692 -1.93385,-0.11131 -3.441512,-0.18529 -5.341092,-0.39267 -0.488603,-0.0533 -0.974569,-0.13771 -1.461855,-0.20656 0,0 2.027946,1.84648 2.027946,1.84648 z" />
    <path
       style="fill:#000000;stroke-width:0.189812"
       id="path227"
       d="m 34.011738,92.510405 c 0.05033,1.668331 0.219727,3.323651 0.402196,4.976527 0.08252,1.03877 0.206658,2.066927 0.360531,3.093268 0,0 2.286302,1.35025 2.286302,1.35025 v 0 c -0.163166,-1.02247 -0.295283,-2.046342 -0.375144,-3.08398 -0.18054,-1.633357 -0.373474,-3.268569 -0.385428,-4.920128 0,0 -2.288457,-1.415937 -2.288457,-1.415937 z" />
    <path
       style="fill:#000000;stroke-width:0.189812"
       id="path229"
       d="m 35.851653,109.80623 c 0.154353,1.48975 0.273312,2.9834 0.358923,4.4812 0,0 2.275785,1.38228 2.275785,1.38228 v 0 c -0.0979,-1.49206 -0.222055,-2.98124 -0.32413,-4.4726 0,0 -2.310578,-1.39088 -2.310578,-1.39088 z" />
    <path
       style="fill:#000000;stroke-width:0.189812"
       id="path231"
       d="m 29.826425,114.98774 c 0.999156,3.19035 1.914253,6.4185 2.783006,9.66438 0.374819,1.42903 0.200801,0.77114 0.520897,1.97413 0,0 2.292131,1.30481 2.292131,1.30481 v 0 c -0.360292,-1.21927 -0.167092,-0.55237 -0.575446,-2.00248 -0.893554,-3.20068 -1.817933,-6.38867 -2.690617,-9.59781 0,0 -2.329971,-1.34303 -2.329971,-1.34303 z" />
    <path
       style="fill:#000000;stroke-width:0.189812"
       id="path233"
       d="m 32.068576,111.95024 c 0.604343,1.78663 1.140376,3.60548 1.720938,5.40353 0,0 2.281054,1.28059 2.281054,1.28059 v 0 c -0.599315,-1.77031 -1.140347,-3.56678 -1.666979,-5.37072 0,0 -2.335013,-1.3134 -2.335013,-1.3134 z" />
    <path
       style="fill:#000000;stroke-width:0.189812"
       id="path235"
       d="m 31.826409,102.71572 c 0.96974,2.97551 1.759841,6.03366 2.519859,9.09605 0,0 2.210349,1.26952 2.210349,1.26952 v 0 c -0.761074,-3.02961 -1.526476,-6.06025 -2.402566,-9.04423 0,0 -2.327642,-1.32134 -2.327642,-1.32134 z" />
    <path
       style="fill:#000000;stroke-width:0.189812"
       id="path237"
       d="m 36.59317,131.12056 c 0.79049,0.0794 1.898959,-0.22568 2.619852,0.19814 -0.70877,-0.4799 -1.403666,-0.99136 -2.12631,-1.43971 -0.03012,-0.0187 0.01831,0.0858 0.0042,0.1231 -0.0532,0.14121 -0.340166,0.50494 -0.394404,0.56724 -0.362824,0.41679 -0.562506,0.56649 -0.982126,0.93992 -0.874053,0.9196 -1.993427,1.48442 -2.827757,2.46385 -0.112647,0.13224 -0.2031,0.28977 -0.30465,0.43466 -0.266165,0.55627 -0.548602,1.44911 -0.253636,2.07992 0.08108,0.17338 0.19219,0.33794 0.33269,0.44113 0.88736,0.65169 1.8208,1.20603 2.731199,1.80904 1.619694,0.4175 3.296993,0.30125 4.942941,0.26686 0.533174,-0.013 1.066297,-0.0286 1.599431,-0.0437 0,0 -2.07656,-1.82043 -2.07656,-1.82043 v 0 c -0.523624,0.0238 -1.047256,0.0476 -1.571067,0.0647 -1.630264,0.045 -3.3089,0.16718 -4.893257,-0.37954 0.546372,0.42123 1.096067,0.83618 1.639117,1.26371 0.124591,0.0981 -0.282271,-0.14328 -0.383494,-0.2752 -0.349031,-0.45488 -0.09596,-1.36368 0.124907,-1.80391 0.845374,-1.2001 2.070765,-1.88048 3.077838,-2.85349 0.465175,-0.40618 0.947871,-0.79451 1.318461,-1.33443 0.15311,-0.22307 0.347397,-0.58705 0.276742,-0.65424 -0.708686,-0.67398 -1.51435,-1.18225 -2.271525,-1.77338 -0.871425,-0.22123 -1.778435,-0.037 -2.660665,-0.10757 0,0 2.078036,1.83337 2.078036,1.83337 z" />
    <path
       style="fill:#000000;stroke-width:0.189812"
       id="path239"
       d="m 59.347181,119.9272 c 0.137825,0.73224 0.237805,1.47361 0.318978,2.21787 0,0 2.307012,1.38077 2.307012,1.38077 v 0 c -0.08342,-0.74876 -0.188301,-1.49324 -0.305846,-2.23522 0,0 -2.320144,-1.36342 -2.320144,-1.36342 z" />
    <path
       style="fill:#000000;stroke-width:0.189812"
       id="path241"
       d="m 45.697209,120.07488 c 0.157735,2.91598 0.294435,5.8351 0.54395,8.74212 0,0 2.240438,1.34758 2.240438,1.34758 v 0 c -0.29403,-2.88844 -0.442572,-5.79691 -0.518428,-8.7052 0,0 -2.26596,-1.3845 -2.26596,-1.3845 z" />
    <path
       style="fill:#000000;stroke-width:0.189812"
       id="path243"
       d="m 46.940712,132.08038 c -0.119608,1.77491 -0.137072,3.56117 0.02579,5.33376 0.0485,0.52787 0.126923,1.05104 0.190387,1.57655 0.257893,1.38236 0.442818,2.81827 0.877774,4.14354 0.140927,0.42939 0.373914,1.04086 0.750303,1.28093 0.882822,0.56307 1.80987,1.01737 2.714806,1.52606 0.177713,-0.0932 0.37192,-0.14939 0.53314,-0.27948 0.998042,-0.80529 1.470982,-2.39134 1.784498,-3.7146 0.23436,-1.51255 0.468388,-3.10885 0.225968,-4.64444 -0.04537,-0.28739 -0.125359,-0.56511 -0.188039,-0.84766 -0.225565,-0.62353 -0.265679,-0.83481 -0.598718,-1.3757 -0.155772,-0.25299 -0.51862,-0.72145 -0.753445,-0.89555 -2.410656,-1.78736 -1.677039,-1.46967 -3.005642,-1.96963 -0.779248,-0.20736 -1.275053,-0.37824 -1.816654,0.45062 -0.231452,0.41622 -0.176722,0.76715 -0.113237,1.23776 0,0 2.307776,1.3553 2.307776,1.3553 v 0 c -0.08353,-0.37865 -0.170222,-0.63515 0.01603,-0.98287 0.446244,-0.61985 1.050665,-0.33268 1.624528,-0.14885 0.953623,0.46761 0.937447,0.48824 -1.384883,-1.09282 -0.142606,-0.0971 0.273954,0.21841 0.399258,0.34592 0.469458,0.47775 0.800506,1.07426 1.037156,1.75793 0.06958,0.26966 0.157165,0.53342 0.208747,0.80899 0.278843,1.48965 0.03333,3.05594 -0.179745,4.53137 -0.274324,1.18569 -0.719965,2.81055 -1.678066,3.45421 -0.14493,0.0974 -0.317272,0.11566 -0.475909,0.17349 0.569482,0.48636 1.145258,0.96203 1.708444,1.45908 0.148527,0.13108 -0.340421,-0.19566 -0.463891,-0.36068 -0.167757,-0.22421 -0.285253,-0.50115 -0.387629,-0.7774 -0.480074,-1.29545 -0.651423,-2.74478 -0.923453,-4.11196 -0.06354,-0.51725 -0.142963,-1.03199 -0.190614,-1.55176 -0.159322,-1.73781 -0.131386,-3.49375 0.0382,-5.22794 0,0 -2.28287,-1.45417 -2.28287,-1.45417 z" />
    <path
       style="fill:#000000;stroke-width:0.189812"
       id="path245"
       d="m 51.326516,141.25708 c 0.87635,-1.30066 1.901338,-2.42886 2.919252,-3.56007 0.126602,-0.13133 0.253203,-0.26266 0.379803,-0.39399 0,0 -2.168235,-1.63742 -2.168235,-1.63742 v 0 c -0.124863,0.13624 -0.249725,0.27249 -0.374586,0.40873 -1.010172,1.15993 -2.02646,2.31319 -2.959631,3.56697 0,0 2.203397,1.61578 2.203397,1.61578 z" />
    <path
       style="fill:#000000;stroke-width:0.189812"
       id="path247"
       d="m 24.990823,122.50907 c -0.08144,1.3863 -0.117922,2.77543 -0.143189,4.16465 -5.17e-4,1.55635 0.248993,3.09334 0.480793,4.61848 0.244489,1.63472 0.758456,3.17553 1.293163,4.69572 0.775868,2.05081 1.53127,4.11301 2.351094,6.13875 0.801024,1.86627 1.779031,3.60564 2.949675,5.1556 1.029286,1.43461 2.292047,2.55233 3.580843,3.61347 0.253589,0.19251 0.502051,0.39537 0.760767,0.57755 0.981954,0.69146 1.962032,1.38778 2.9607,2.04298 1.111868,0.72948 2.428624,1.18796 3.636157,1.61857 1.929367,0.57976 3.913514,0.80137 5.892199,0.95022 1.514177,0.13589 3.015224,0.0674 4.506069,-0.27576 1.855533,-0.37775 3.557482,-1.33667 5.214075,-2.37676 1.981479,-1.2245 3.770297,-2.81992 5.389466,-4.65949 1.615701,-1.84526 2.568855,-4.25157 3.345299,-6.73018 0.838456,-2.92692 1.056111,-6.02893 1.220862,-9.09961 0.0562,-1.65022 0.07826,-3.31871 -0.273057,-4.92493 -0.351619,-1.33695 -0.812974,-2.62652 -1.225672,-3.93683 -0.294534,-0.98226 -0.588355,-1.96578 -0.857396,-2.95892 0,0 -2.321369,-1.32463 -2.321369,-1.32463 v 0 c 0.274588,1.00219 0.587606,1.98824 0.875587,2.98478 0.40835,1.29935 0.852434,2.58332 1.215945,3.90215 0.402469,1.57651 0.414805,3.23406 0.379787,4.87275 -0.142225,3.04414 -0.348038,6.1189 -1.189574,9.01634 -0.763554,2.43837 -1.70337,4.79524 -3.299008,6.6036 -1.600254,1.82521 -3.375853,3.39108 -5.340988,4.59539 -1.658805,1.00636 -3.357244,1.92301 -5.205004,2.27653 -1.480758,0.30447 -2.96907,0.35553 -4.467624,0.21927 -1.965969,-0.14252 -3.938449,-0.36834 -5.845854,-0.99517 -0.929849,-0.34016 -1.842162,-0.69752 -2.732474,-1.17338 -0.294003,-0.15715 -1.118483,-0.74754 -0.872632,-0.49649 0.397878,0.40629 0.888624,0.65563 1.338421,0.97212 0.256901,0.18077 -0.506422,-0.37657 -0.759634,-0.56486 -1.289661,-1.04063 -2.563136,-2.13263 -3.598051,-3.5469 -1.191632,-1.51408 -2.177598,-3.23354 -2.992428,-5.08051 -0.82512,-2.01382 -1.573128,-4.07087 -2.343456,-6.11599 -0.528426,-1.49891 -1.043117,-3.01628 -1.297993,-4.62491 -0.242404,-1.5048 -0.489432,-3.02589 -0.508488,-4.56292 0.02464,-1.37513 0.0511,-2.75253 0.16927,-4.12147 0,0 -2.286281,-1.44921 -2.286281,-1.44921 z" />
    <path
       style="fill:#000000;stroke-width:0.189812"
       id="path249"
       d="m 38.744443,144.03245 c -0.197425,1.15804 -0.411086,2.34828 -0.376555,3.53969 0.0086,0.29553 0.04853,0.58848 0.0728,0.88273 0.156955,1.51249 0.646504,2.87485 1.32824,4.13643 0.790443,1.18892 2.20793,2.87827 3.45642,2.41594 0.0923,-0.0884 0.196905,-0.16053 0.276897,-0.26508 0.801089,-1.04717 1.209694,-2.50526 1.568285,-3.82947 0.331753,-1.50281 0.605426,-3.03753 0.683854,-4.59381 -0.03736,-1.8655 -2.029011,-2.57303 -3.389276,-2.75022 -0.537636,-0.0391 -0.270321,-0.0236 -0.801931,-0.0466 0,0 2.067885,1.84129 2.067885,1.84129 v 0 c 0.523665,0.0333 0.260637,0.01 0.78905,0.071 0.12264,0.0251 0.247031,0.04 0.367919,0.0755 0.110108,0.0323 0.417678,0.20357 0.3232,0.12767 -0.636404,-0.51137 -1.305167,-0.96071 -1.95775,-1.44107 0.129289,0.12019 0.225984,0.1737 0.2829,0.37585 0.0288,0.10231 0.02407,0.21426 0.0361,0.32139 -0.01766,1.53852 -0.290021,3.06223 -0.606687,4.54544 -0.304488,1.11488 -0.785512,2.8047 -1.531558,3.61917 -0.06288,0.0686 -0.149255,0.0965 -0.223881,0.14478 -0.805373,-0.0273 -2.425273,-1.5705 1.68562,1.35549 0.07223,0.0514 -0.14791,-0.0966 -0.215692,-0.15625 -0.229846,-0.20234 -0.272982,-0.29715 -0.465799,-0.5672 -0.730536,-1.27198 -1.21707,-2.45021 -1.4055,-4.0142 -0.02709,-0.27951 -0.07021,-0.55741 -0.08127,-0.83852 -0.04582,-1.16423 0.15216,-2.33508 0.379141,-3.45763 0,0 -2.262407,-1.49237 -2.262407,-1.49237 z" />
    <path
       style="fill:#000000;stroke-width:0.189812"
       id="path251"
       d="m 34.145705,123.87829 c 1.218262,1.15183 2.41807,2.33214 3.635578,3.48512 0.820668,0.75697 1.619099,1.54806 2.417419,2.3391 0,0 2.383393,1.16712 2.383393,1.16712 v 0 c -0.800936,-0.81663 -1.631408,-1.59225 -2.458342,-2.36985 -1.20883,-1.1297 -2.390696,-2.30084 -3.586004,-3.45137 0,0 -2.392044,-1.17012 -2.392044,-1.17012 z" />
    <path
       style="fill:#000000;stroke-width:0.189812"
       id="path253"
       d="m 48.39861,133.79266 c 2.608863,-0.93922 5.258683,-1.70272 7.908597,-2.44935 0.482788,-0.12694 0.965574,-0.25388 1.448361,-0.38082 0,0 -2.017083,-1.69889 -2.017083,-1.69889 v 0 c -0.477536,0.13267 -0.955073,0.26534 -1.432609,0.39801 -2.677829,0.76785 -5.35447,1.54253 -8.022533,2.35913 0,0 2.115267,1.77192 2.115267,1.77192 z" />
    <path
       style="fill:#000000;stroke-width:0.189812"
       id="path257"
       d="m 45.410965,155.56037 c 0.78476,1.84811 1.534055,3.71743 2.34175,5.55111 0.75978,1.81284 1.521645,3.6254 2.226261,5.4711 0.408027,1.03688 0.778688,2.095 1.202065,3.12291 0.349448,0.81633 0.789339,1.56729 1.189365,2.34692 0.244087,0.49297 0.47925,0.99186 0.7239,1.48448 0,0 2.35575,1.2711 2.35575,1.2711 v 0 c -0.23693,-0.50292 -0.496149,-0.99033 -0.731123,-1.49487 -0.38899,-0.78269 -0.834042,-1.5221 -1.197558,-2.32363 -0.435826,-1.0319 -0.825667,-2.09035 -1.242535,-3.13364 -0.709866,-1.85321 -1.47526,-3.67329 -2.236116,-5.49617 -0.806504,-1.81221 -1.558375,-3.65849 -2.293301,-5.51494 0,0 -2.338458,-1.28437 -2.338458,-1.28437 z" />
    <path
       style="fill:#000000;stroke-width:0.189812"
       id="path259"
       d="m 54.305401,154.13282 c 0.671448,1.38208 1.285544,2.80375 1.926468,4.20673 0.449972,0.98772 0.894545,1.97689 1.30041,2.99252 0.611116,1.344 1.101769,2.75288 1.541379,4.19011 0.550635,1.63578 0.977637,3.32453 1.462587,4.98858 0.301119,1.06438 0.622632,2.11936 0.906003,3.19108 0.175141,0.64769 0.09085,0.32904 0.253221,0.9558 0,0 2.318424,1.32834 2.318424,1.32834 v 0 c -0.162674,-0.63218 -0.07763,-0.31246 -0.255597,-0.95899 -0.282415,-1.07904 -0.603283,-2.14048 -0.912014,-3.20856 -0.514594,-1.65879 -0.933445,-3.36075 -1.48733,-5.00274 -0.426019,-1.43642 -0.878057,-2.86138 -1.493902,-4.19694 -0.405401,-1.03 -0.850055,-2.03171 -1.316834,-3.02274 -0.647101,-1.38458 -1.254057,-2.79608 -1.89198,-4.18674 0,0 -2.350835,-1.27645 -2.350835,-1.27645 z" />
    <path
       style="fill:#000000;stroke-width:0.189812"
       id="path261"
       d="m 61.379601,187.5782 c -0.987936,0.0341 -1.986952,0.0721 -2.952532,0.34469 -0.852557,0.29975 -1.084093,0.81373 -1.266658,1.82239 -0.171419,1.47686 -0.0949,2.99687 0.415337,4.37243 0.102401,0.27607 0.239583,0.53109 0.359373,0.79664 0.382355,0.7069 0.869154,1.32273 1.473935,1.7535 1.520875,1.08329 2.302076,1.80288 3.777442,2.25096 0.775496,0.19202 1.565793,0.18796 2.271489,-0.27304 0.544799,-0.62186 0.729625,-1.57063 0.910489,-2.42351 0.193574,-1.18685 0.219988,-2.39889 0.121393,-3.59943 -0.09108,-1.3421 -0.503059,-2.57165 -1.068156,-3.71376 -0.544789,-0.99309 -1.242174,-1.83478 -1.991298,-2.59817 0,0 -2.368333,-1.15622 -2.368333,-1.15622 v 0 c 0.762638,0.72451 1.466013,1.54158 2.028054,2.50509 0.580226,1.09169 1.015765,2.27792 1.116825,3.58729 0.108248,1.16531 0.09043,2.33838 -0.0946,3.49325 -0.152609,0.75738 -0.30342,1.65517 -0.806211,2.18524 -0.680868,0.37296 -1.428592,0.31384 -2.143567,0.10602 -1.060127,-0.3788 -2.135924,-1.21172 0.608304,0.75964 0.190886,0.13713 -0.384015,-0.27172 -0.562312,-0.4319 -0.534869,-0.48053 -0.545514,-0.57525 -0.962574,-1.19585 -0.126277,-0.25107 -0.270748,-0.48991 -0.378831,-0.75321 -0.536128,-1.30605 -0.631707,-2.77035 -0.451908,-4.19518 0.161462,-0.91353 0.343597,-1.27633 1.114943,-1.51939 0.961998,-0.23864 1.951282,-0.28562 2.931234,-0.28076 0,0 -2.081839,-1.83672 -2.081839,-1.83672 z" />
    <path
       style="fill:#000000;stroke-width:0.189812"
       id="path263"
       d="m 57.731822,191.63847 c -1.381479,-0.4879 -2.729798,-1.09726 -4.068894,-1.73297 -1.059283,-0.45911 -2.118856,-0.92263 -3.15374,-1.45838 -0.688018,-0.30389 -1.307045,-0.78442 -1.945332,-1.21162 -0.592166,-0.40771 -1.234249,-0.69105 -1.844348,-1.05465 0,0 2.010037,1.94364 2.010037,1.94364 v 0 c 0.615652,0.34 1.243408,0.65339 1.829625,1.06612 0.637336,0.43158 1.267804,0.88314 1.959003,1.18005 1.036111,0.50853 2.085319,0.97533 3.137233,1.43319 1.354123,0.63123 2.720957,1.21598 4.10139,1.75671 0,0 -2.024974,-1.92209 -2.024974,-1.92209 z" />
    <path
       style="fill:#000000;stroke-width:0.189812"
       id="path267"
       d="m 29.795042,121.18991 c -0.274409,-1.03437 -0.657129,-2.01015 -1.215518,-2.86042 -1.116943,-1.1929 -2.45152,-2.26784 -3.947894,-2.49257 -0.451061,-0.0406 -0.913748,0.0559 -1.349858,0.19495 0,0 2.118661,1.78095 2.118661,1.78095 v 0 c 0.424835,-0.10334 0.860681,-0.18747 1.292849,-0.0975 0.217234,0.0495 0.306295,0.0612 0.51987,0.14649 0.09527,0.038 0.366086,0.19485 0.281162,0.13007 -3.509529,-2.67707 -2.028058,-1.48919 -1.275767,-0.87627 0.591713,0.78343 0.986661,1.7243 1.247797,2.73781 0,0 2.328698,1.33652 2.328698,1.33652 z" />
    <path
       style="fill:#000000;stroke-width:0.189812"
       id="path269"
       d="m 25.310323,117.00831 c 0.185724,-0.9352 0.38258,-1.87535 0.740731,-2.7374 0.387748,-0.73898 0.817653,-1.02813 1.504973,-1.20861 0.455102,-0.0791 0.228856,-0.047 0.67867,-0.0971 0,0 -2.095219,-1.80659 -2.095219,-1.80659 v 0 c -0.460948,0.0706 -0.228504,0.0268 -0.697166,0.1326 -0.734661,0.248 -1.214376,0.63732 -1.625053,1.43528 -0.362604,0.88853 -0.554052,1.85356 -0.778441,2.80316 0,0 2.271505,1.47869 2.271505,1.47869 z" />
    <path
       style="fill:#000000;stroke-width:0.189812"
       id="path271"
       d="m 25.162738,116.52811 c -0.64715,-1.28686 -1.268473,-2.5927 -1.892287,-3.89641 -0.475653,-1.01867 -0.933657,-2.04949 -1.320206,-3.12275 0,0 -2.324885,-1.29583 -2.324885,-1.29583 v 0 c 0.386933,1.09197 0.852093,2.13736 1.335286,3.17069 0.618118,1.29199 1.238078,2.58251 1.841421,3.88473 0,0 2.360671,1.25957 2.360671,1.25957 z" />
    <path
       style="fill:#000000;stroke-width:0.189812"
       id="path273"
       d="m 22.105421,117.78894 c -0.13558,1.38373 0.08313,2.72097 0.432514,4.0299 0.771839,2.38065 0.890905,1.86622 3.282303,3.43554 0.459361,-0.0395 0.896522,-0.19182 1.303791,-0.44823 0.354319,-0.19439 0.66166,-0.49852 0.964923,-0.79007 0,0 -2.179673,-1.66789 -2.179673,-1.66789 v 0 c -0.296237,0.2738 -0.597282,0.54927 -0.941536,0.72888 -0.374481,0.19888 -0.778248,0.3612 -1.190638,0.26264 0.667912,0.4816 1.343425,0.94799 2.003734,1.44481 0.06622,0.0498 -0.155237,-0.0459 -0.218282,-0.10143 -0.391751,-0.34535 -0.475002,-1.08494 -0.717681,-1.5493 -0.368914,-1.29027 -0.613311,-2.50471 -0.463834,-3.88469 0,0 -2.275621,-1.46016 -2.275621,-1.46016 z" />
    <path
       style="fill:#000000;stroke-width:0.189812"
       id="path277"
       d="m 20.109451,116.36277 c -0.986819,1.00971 -1.898692,2.13983 -2.628777,3.43771 -0.223242,0.39686 -0.419898,0.81484 -0.629847,1.22226 -1.361878,2.91893 -2.206767,6.16927 -2.743173,9.45132 -0.13308,0.81426 -0.224687,1.63772 -0.337031,2.45658 -0.424916,3.9513 -0.442693,8.01294 0.318366,11.91078 0.14933,0.76481 0.356359,1.51129 0.534539,2.26693 1.173046,4.5083 3.091569,8.61224 5.156424,12.58942 1.871481,3.61004 3.941306,7.04989 6.159362,10.35466 2.44845,3.63806 5.142234,7.01226 8.007742,10.1646 1.42735,1.49302 2.899714,2.95364 4.536862,4.10018 0.989729,0.69314 1.989428,1.36506 2.984142,2.04759 1.563211,0.93211 3.177868,1.71901 4.814205,2.43793 1.557634,0.5977 3.129769,1.13468 4.708717,1.64199 1.514367,0.4886 3.044594,0.91212 4.590298,1.22596 0.897625,0.17785 1.791197,0.40887 2.699571,0.48798 0,0 -2.064737,-1.8529 -2.064737,-1.8529 v 0 c -0.89273,-0.099 -1.774431,-0.30387 -2.657797,-0.48424 -1.538819,-0.32694 -3.063817,-0.74546 -4.571404,-1.2429 -1.575334,-0.50566 -3.143793,-1.04401 -4.69223,-1.66155 -1.626504,-0.72292 -3.232637,-1.51402 -4.780786,-2.46109 0.436007,0.3198 0.871808,0.64001 1.308024,0.9594 0.274449,0.20095 -0.551901,-0.39601 -0.822729,-0.60408 -1.342284,-1.03123 -2.594998,-2.22391 -3.799616,-3.47835 -2.889881,-3.12786 -5.594061,-6.49638 -8.048524,-10.13581 -2.210632,-3.29917 -4.272074,-6.73383 -6.161112,-10.31763 -2.070699,-3.95493 -4.005074,-8.02819 -5.190329,-12.51699 -0.178767,-0.74612 -0.384045,-1.48362 -0.536302,-2.23837 -0.780425,-3.86859 -0.795871,-7.897 -0.374936,-11.82871 0.113594,-0.8112 0.207628,-1.6268 0.340782,-2.43359 0.535947,-3.2474 1.394366,-6.44696 2.768272,-9.31887 0.211799,-0.3961 0.411445,-0.80219 0.635397,-1.18831 0.733536,-1.26471 1.638472,-2.37899 2.647015,-3.32006 0,0 -2.170388,-1.67184 -2.170388,-1.67184 z" />
    <path
       style="fill:#000000;stroke-width:0.189812"
       id="path281"
       d="m 57.095294,190.66162 c -1.178133,0.0457 -2.348696,-0.12602 -3.507279,-0.36874 -1.02297,-0.20589 -2.036239,-0.48158 -3.045512,-0.76961 -0.774498,-0.23901 -1.533671,-0.54265 -2.306792,-0.78777 -0.900223,-0.31176 -1.773615,-0.72397 -2.647653,-1.12823 -0.884583,-0.44649 -1.777905,-0.87441 -2.642277,-1.37666 -0.803157,-0.44573 -2.580178,-1.6411 0.926277,0.7168 0.147781,0.0994 -0.287697,-0.21517 -0.42926,-0.3271 -0.279233,-0.22079 -0.587207,-0.48669 -0.859204,-0.7177 -0.915541,-0.75867 -1.851315,-1.48031 -2.790386,-2.19504 -1.523973,-1.11412 -3.060455,-2.19901 -4.600964,-3.27981 -0.668498,-0.44493 -1.349316,-0.86011 -2.027565,-1.28269 -0.990132,-0.70532 0.181414,0.13093 1.584772,1.09577 0.112784,0.0776 -0.222172,-0.16215 -0.333565,-0.24261 -0.390629,-0.2821 -0.764322,-0.57675 -1.136961,-0.89292 -0.936673,-0.87881 -1.807545,-1.85407 -2.668673,-2.83841 -0.988173,-1.14384 -1.951877,-2.31823 -2.916858,-3.49074 -0.650286,-0.77615 -1.299793,-1.54674 -1.849841,-2.43169 -0.484481,-0.89869 -0.88611,-1.85506 -1.259903,-2.82682 -0.530768,-1.39976 -1.04702,-2.80768 -1.613211,-4.18703 -0.611682,-1.36938 -1.231574,-2.73131 -1.782663,-4.13866 -0.536947,-1.36426 -1.008881,-2.76202 -1.446595,-4.17687 -0.474434,-1.54582 -0.889002,-3.11724 -1.342013,-4.67204 -0.408685,-1.35214 -0.793461,-2.71507 -1.167117,-4.08206 -0.289337,-1.12436 -0.502089,-2.27569 -0.634272,-3.44219 -0.125388,-1.38592 -0.125252,-2.78253 -0.136074,-4.17498 -0.0018,-2.05639 -0.02845,-4.11289 0.01094,-6.16884 0.0095,-1.99333 0.124914,-3.9662 0.496239,-5.90877 0.236226,-0.95045 0.594289,-1.82466 1.079296,-2.62022 0.418492,-0.72528 0.897047,-1.39294 1.390806,-2.04294 0.542115,-0.6793 1.204229,-1.18034 1.902638,-1.58518 0.53547,-0.33145 1.13566,-0.37644 1.707186,-0.54646 0.291221,-0.0856 0.148442,-0.0456 0.428247,-0.12045 0,0 -2.123006,-1.78618 -2.123006,-1.78618 v 0 c -0.27839,0.0796 -0.136713,0.0392 -0.425033,0.12143 -0.591433,0.14389 -1.185379,0.2829 -1.730009,0.61647 -0.717678,0.43613 -1.391141,0.98039 -1.951806,1.68406 -0.50067,0.65878 -0.985263,1.33494 -1.40969,2.07014 -0.499855,0.83606 -0.86883,1.75149 -1.110475,2.74532 -0.0882,0.48922 -0.189965,1.01979 -0.251265,1.51319 -0.183947,1.4806 -0.166658,2.98165 -0.228601,4.4732 -0.0542,2.05211 -0.04154,4.10528 -0.04631,6.1583 0.0019,1.4001 -0.004,2.80408 0.10634,4.1992 0.117127,1.18676 0.332668,2.35413 0.616491,3.49862 0.378801,1.37014 0.764724,2.73762 1.175384,4.09421 0.463617,1.55156 0.873385,3.12657 1.342177,4.67625 0.431534,1.42267 0.89307,2.83062 1.4341,4.1981 0.541662,1.41635 1.158874,2.7832 1.783137,4.14789 0.571743,1.36957 1.083292,2.77264 1.605972,4.17049 0.363805,0.98761 0.766274,1.94857 1.222468,2.87825 0.548585,0.90856 1.180615,1.71411 1.857766,2.48499 0.968181,1.17358 1.937124,2.34643 2.920466,3.50131 0.853754,0.9903 1.723463,1.95964 2.636396,2.86968 1.348485,1.18233 2.827489,2.12668 4.268835,3.12912 0.679432,0.41047 1.346329,0.84811 2.01255,1.2893 -3.937523,-2.76974 -0.66125,-0.44087 0.235928,0.20525 0.940274,0.70843 1.871287,1.43405 2.793009,2.17758 1.494961,1.28907 3.058067,2.47845 4.732911,3.39471 0.873053,0.4839 1.761564,0.92828 2.653416,1.3583 0.879141,0.40609 1.761559,0.80982 2.669949,1.11011 0.770225,0.26196 1.534403,0.55051 2.312246,0.77868 1.006341,0.28006 2.018306,0.53655 3.037574,0.7368 1.179013,0.22223 2.364985,0.37234 3.559801,0.35968 0,0 -2.082488,-1.84379 -2.082488,-1.84379 z" />
    <path
       style="fill:#000000;stroke-width:0.189812"
       id="path283"
       d="m 72.043421,104.20023 c 0.560717,-2.76186 1.142729,-5.517144 1.764765,-8.259847 0.692933,-2.877886 1.436078,-5.736292 2.306283,-8.542482 0,0 -2.206169,-1.484841 -2.206169,-1.484841 v 0 c -0.820461,2.841987 -1.545463,5.720834 -2.244587,8.610163 -0.632491,2.730828 -1.214353,5.479207 -1.891589,8.194117 0,0 2.271297,1.48289 2.271297,1.48289 z" />
    <path
       style="fill:#000000;stroke-width:0.189812"
       id="path285"
       d="m 72.595049,103.67744 c 0.163237,-0.0485 0.326467,-0.0971 0.489704,-0.1456 0.33217,-0.10761 0.662654,-0.22322 0.99651,-0.32284 1.516329,-0.45247 3.044058,-0.84728 4.560492,-1.29924 2.859286,-0.85219 5.496255,-1.70489 8.3553,-2.612556 6.161551,-1.980079 12.348551,-3.841214 18.563485,-5.557311 0,0 -1.93158,-1.621535 -1.93158,-1.621535 v 0 c -6.136918,1.867082 -12.260984,3.795461 -18.388025,5.709591 -3.16173,0.959234 -5.348825,1.655208 -8.486819,2.490621 -1.571054,0.41825 -3.154986,0.76217 -4.728468,1.16669 -0.346929,0.0892 -0.692262,0.18732 -1.03839,0.28097 -0.170391,0.0428 -0.340783,0.0856 -0.511168,0.12839 0,0 2.118959,1.78282 2.118959,1.78282 z" />
    <path
       style="fill:#000000;stroke-width:0.189812"
       id="path309"
       d="m 85.964856,84.289798 c -0.425949,-2.819623 -0.905067,-5.626208 -1.376855,-8.43496 -0.333615,-2.501696 -0.831164,-5.031195 -0.655369,-7.578748 0.110628,-0.655352 0.418001,-1.079105 0.796015,-1.527402 0,0 -2.179608,-1.619494 -2.179608,-1.619494 v 0 c -0.403111,0.513117 -0.742182,1.006008 -0.866188,1.726851 -0.01816,0.279317 -0.04948,0.557831 -0.05449,0.837951 -0.01575,0.882227 0.04238,1.298958 0.13678,2.197319 0.164057,1.561702 0.369499,3.116255 0.611561,4.662974 0.47089,2.780873 0.960144,5.559747 1.266514,8.376503 0,0 2.321628,1.359006 2.321628,1.359006 z" />
    <path
       style="fill:#000000;stroke-width:0.189812"
       id="path311"
       d="m 85.297782,66.160752 c 1.225369,-0.175598 2.518646,-0.32755 3.715559,0.144152 0.204277,0.08051 0.395872,0.202402 0.593808,0.303603 -3.219807,-2.243071 -1.538626,-1.198975 -0.969147,-0.398279 0.25352,0.356453 0.366362,0.715937 0.472543,1.160208 0.173223,0.963733 0.03763,1.894199 -0.380567,2.729254 -0.73808,0.935063 -1.693328,1.5743 -2.654227,2.109883 -0.187657,0.18966 -0.471111,0.175593 -0.667537,0.347421 -0.04876,0.04265 -0.147228,0.140593 -0.09852,0.183334 0.753978,0.661655 1.546849,1.260839 2.362694,1.803599 0.0013,8.69e-4 0.935769,0.114368 0.937651,0.114597 0.233299,0.04474 0.736629,0.128027 0.963867,0.223676 0.149279,0.06283 0.564409,0.344494 0.427128,0.249513 -2.811638,-1.945392 -1.832113,-1.382856 -1.028377,-0.30668 0.33743,0.57581 0.989147,1.537072 0.79554,2.315709 -0.05436,0.218733 -0.170997,0.407069 -0.256502,0.610604 -1.334649,2.074562 -3.140754,3.567915 -4.883587,5.087308 -0.828767,0.688209 -0.441879,0.367043 -1.160631,0.963554 0,0 2.145748,1.658449 2.145748,1.658449 v 0 c 0.69542,-0.616681 0.319091,-0.28518 1.129891,-0.992994 1.753379,-1.581871 3.584411,-3.106095 4.974247,-5.182393 0.107197,-0.236576 0.246333,-0.455636 0.321585,-0.709727 0.26945,-0.909826 -0.335992,-1.839588 -0.715074,-2.54314 -1.175384,-1.738063 -2.911283,-2.993316 -4.761722,-3.223064 -0.170763,-0.02533 -0.342176,-0.04485 -0.512281,-0.076 -0.14316,-0.02621 -0.536961,-0.210463 -0.427089,-0.09598 1.913517,1.993632 1.323934,1.98855 2.580799,1.280152 0.990442,-0.587658 1.993404,-1.25872 2.745637,-2.25453 0.44621,-0.899376 0.622076,-1.899859 0.47419,-2.945842 -0.06605,-0.388737 -0.07005,-0.547641 -0.216939,-0.900941 -0.664431,-1.598102 -2.575278,-2.323376 -3.596891,-3.110263 -0.203919,-0.08695 -0.402962,-0.193105 -0.611757,-0.260864 -1.238012,-0.401754 -2.53554,-0.209876 -3.792881,-0.100485 0,0 2.09284,1.816165 2.09284,1.816165 z" />
    <path
       style="fill:#000000;stroke-width:0.189812"
       id="path313"
       d="m 95.503391,73.607198 c -0.754148,0.258219 -1.709012,0.06271 -2.371633,0.660817 -0.111604,0.100734 -0.18903,0.247712 -0.283545,0.371568 -0.05495,0.153187 -0.133524,0.296856 -0.164819,0.459559 -0.151212,0.786127 0.129683,1.684729 0.49734,2.31964 0.110244,0.190375 0.246795,0.35615 0.37019,0.534225 1.496493,1.486112 3.240302,2.856631 5.191708,3.127956 1.109162,0.01318 1.551988,-0.46663 2.126818,-1.553837 0.57383,-1.290409 0.66155,-2.388154 0.34413,-3.78466 -0.0635,-0.157171 -0.11314,-0.323813 -0.19054,-0.471513 -0.58384,-1.114001 -2.871958,-2.119881 -3.202454,-2.274824 -0.253384,-0.11879 -1.044666,0.428532 -1.17502,0.505224 -1.117853,0.813389 -2.112071,1.848684 -3.063589,2.923024 0,0 2.16485,1.621417 2.16485,1.621417 v 0 c 0.91842,-1.068868 1.88327,-2.101943 3.009059,-2.840078 0.205644,-0.09805 0.402415,-0.230012 0.616939,-0.294139 0.158074,-0.04725 0.608294,0.09651 0.487484,-0.03599 -0.527027,-0.57802 -1.202564,-0.918126 -1.793501,-1.396391 -0.105179,-0.08512 0.231229,0.12813 0.33491,0.215912 0.296065,0.250666 0.30708,0.353707 0.499867,0.720642 0.368822,1.316861 0.315686,2.304491 -0.237558,3.545548 -0.549688,1.004113 -0.944408,1.344011 -1.96716,1.260608 -0.473819,-0.09851 -0.491195,-0.07979 -0.960242,-0.272307 -0.178067,-0.07309 -0.680127,-0.375971 -0.52702,-0.243552 0.523895,0.453113 1.102913,0.80409 1.649997,1.214811 0.167267,0.125573 -0.346297,-0.227694 -0.510406,-0.359266 -0.156557,-0.12552 -0.299931,-0.273764 -0.449894,-0.410646 -0.519182,-0.64633 -1.105959,-1.54283 -0.976406,-2.528091 0.01673,-0.127405 0.07763,-0.240203 0.116448,-0.360304 0.07653,-0.0926 0.139299,-0.205758 0.229589,-0.277798 0.633117,-0.505152 1.619028,-0.365864 2.333463,-0.564437 0,0 -2.099005,-1.813113 -2.099005,-1.813113 z" />
    <path
       style="fill:#000000;stroke-width:0.189812"
       id="path315"
       d="m 101.90861,73.91754 c 0.0561,1.648298 -0.0284,3.296297 -0.12115,4.940204 -0.10422,1.56835 -0.42173,1.492807 2.22661,1.978703 0.20089,0.03686 0.007,-0.493578 0.0208,-0.739721 0.0208,-0.369566 0.0554,-0.737795 0.0831,-1.10669 0.17155,-1.550634 0.49108,-3.067722 0.83189,-4.573729 0.1366,-0.603592 0.40831,-1.846297 0.6485,-2.457476 0.096,-0.244304 0.24438,-0.45282 0.36657,-0.67923 0.32969,-0.239383 0.38538,-0.413178 0.7757,-0.21291 0.15992,0.08205 0.59147,0.43606 0.43152,0.354107 -0.58081,-0.297594 -1.08063,-0.866606 -1.70073,-1.004416 -0.25198,-0.05599 0.32895,0.477887 0.47633,0.732309 0.15863,0.273842 0.29359,0.566813 0.44039,0.85022 0.45357,1.01505 0.81136,2.083979 1.12843,3.170552 0,0 2.30646,1.308773 2.30646,1.308773 v 0 c -0.324,-1.107029 -0.69495,-2.191139 -1.13036,-3.241407 -1.1186,-2.297917 -0.93191,-1.832603 -3.50993,-3.753354 -0.54494,-0.40601 -0.97144,-0.255247 -1.40762,0.248452 -0.12357,0.251114 -0.27271,0.48611 -0.37071,0.753342 -0.22662,0.617997 -0.49128,1.894921 -0.62535,2.500587 -0.33595,1.517625 -0.67003,3.038689 -0.88618,4.589907 -0.0391,0.367637 -0.0836,0.734482 -0.11731,1.102914 -0.0217,0.238322 -0.19261,0.552378 -0.049,0.716894 2.42359,2.775531 2.23897,2.610703 2.32052,0.880488 0.0657,-1.644997 0.15105,-3.289358 0.15947,-4.936712 0,0 -2.29794,-1.421807 -2.29794,-1.421807 z" />
    <path
       style="fill:#000000;stroke-width:0.189812"
       id="path317"
       d="m 111.668,80.790694 c 0.73804,-0.56405 1.42006,-1.286426 1.92978,-2.153275 0.34059,-0.57922 0.44286,-0.935867 0.68115,-1.576061 0.4726,-1.534681 0.45712,-3.170062 -0.0367,-4.696884 -0.0997,-0.308166 -0.23373,-0.598247 -0.3506,-0.89737 -0.32163,-0.7318 -0.697,-1.424132 -1.0638,-2.122531 -0.12053,-0.229502 -0.33057,-0.520609 -0.2976,-0.835523 0.012,-0.114565 0.084,-0.207238 0.12597,-0.310857 0.11486,-0.09946 0.22006,-0.217843 0.34457,-0.298388 0.87488,-0.56599 2.00573,-0.796869 2.97461,-1.005578 0.60496,-0.05133 0.31271,-0.0546 0.87678,-0.0011 0,0 -2.06678,-1.838522 -2.06678,-1.838522 v 0 c -0.58306,-0.0013 -0.28288,-0.02089 -0.90013,0.06713 -0.92971,0.226761 -2.24141,0.526175 -3.04604,1.122493 -0.15225,0.112839 -0.27631,0.274 -0.41447,0.410999 -0.15359,0.368581 -0.29725,0.526378 -0.1786,0.963956 0.0493,0.181842 0.16505,0.326302 0.25139,0.486482 0.37355,0.692983 0.76184,1.374742 1.09638,2.097935 0.12229,0.286808 0.26126,0.564006 0.36688,0.860425 0.5149,1.445152 0.55964,3.010899 0.112,4.487069 -0.0935,0.255958 -0.17382,0.519668 -0.28058,0.767876 -0.49764,1.156986 -1.30406,2.123895 -2.25728,2.719586 0,0 2.13304,1.752172 2.13304,1.752172 z" />
    <path
       style="fill:#000000;stroke-width:0.189812"
       id="path319"
       d="m 136.98855,80.848742 c -0.17273,-0.09627 -0.34684,-0.188961 -0.51818,-0.288811 -0.22211,-0.129428 -0.44388,-0.259933 -0.66203,-0.398947 -0.25745,-0.164068 -1.01729,-0.684392 -0.76444,-0.5101 2.30448,1.588468 1.10579,0.767807 0.30475,0.100372 -0.32581,-0.271472 -0.6399,-0.56313 -0.95986,-0.844695 -1.58314,-1.52902 -2.82455,-3.45618 -3.57014,-5.747367 -0.15629,-0.480254 -0.27118,-0.978877 -0.40677,-1.468315 -0.39341,-1.838645 -0.45622,-3.7424 -0.0204,-5.579978 0.19371,-0.816816 0.35812,-1.119585 0.66916,-1.844777 0.59724,-1.063226 1.44297,-1.66109 2.46274,-1.904177 0.95609,-0.08013 1.82438,0.467049 2.70029,0.850578 0.94522,0.508107 1.9343,0.882592 2.92395,1.239523 0.89271,0.333915 2.37464,1.457978 -1.31191,-1.001377 0,0 2.38491,1.177377 2.38491,1.177377 v 0 c -1.21976,-0.901807 -1.89902,-1.660305 -3.09673,-2.073389 -0.9839,-0.362797 -1.95979,-0.757292 -2.90693,-1.24617 -0.90356,-0.404301 -1.81346,-0.918624 -2.80055,-0.720029 -1.06451,0.328249 -1.9414,1.020447 -2.54924,2.158199 -0.31654,0.768716 -0.47482,1.070676 -0.67507,1.931156 -0.439,1.886491 -0.40606,3.840027 -0.0191,5.734443 0.13075,0.498234 0.24083,1.005175 0.39226,1.494701 0.72101,2.330948 1.93461,4.308419 3.51429,5.887758 2.15704,1.946683 4.47727,3.650873 6.93537,4.976241 0,0 -2.02629,-1.922216 -2.02629,-1.922216 z" />
    <path
       style="fill:#000000;stroke-width:0.189812"
       id="path321"
       d="m 129.70208,71.666635 c 1.38716,0.101198 2.76111,0.371121 4.1386,0.584423 1.1885,0.167891 0.60311,0.08773 1.75614,0.240935 0,0 -2.02075,-1.823819 -2.02075,-1.823819 v 0 c -1.14754,-0.151052 -0.56363,-0.0696 -1.75162,-0.245368 -1.39386,-0.229507 -2.78632,-0.476969 -4.18883,-0.61735 0,0 2.06646,1.861179 2.06646,1.861179 z" />
    <path
       style="fill:#000000;stroke-width:0.189812"
       id="path323"
       d="m 139.24781,88.728289 c 0.88635,-0.942801 1.47459,-1.753628 1.63264,-3.234503 0.0349,-0.326665 0.0276,-0.65794 0.0414,-0.986909 -0.0643,-1.852068 -0.47102,-3.652295 -0.74697,-5.468361 -0.20151,-1.884926 0.51362,-2.476061 1.78828,-3.274114 0.69816,-0.316888 1.38439,-0.772229 2.14717,-0.783102 0.45016,-0.0064 0.56724,0.05324 0.99554,0.16483 0,0 -2.03993,-1.867124 -2.03993,-1.867124 v 0 c -0.43312,-0.07464 -0.58969,-0.129436 -1.03907,-0.08693 -0.77513,0.07332 -1.47689,0.538613 -2.18356,0.887475 -1.33261,0.881842 -2.14334,1.61476 -1.94631,3.613379 0.28052,1.798379 0.6696,3.582074 0.78112,5.411125 -0.009,0.313881 0.003,0.629515 -0.0258,0.941642 -0.12862,1.402397 -0.70363,2.163484 -1.57591,3.002267 0,0 2.17145,1.680323 2.17145,1.680323 z" />
    <path
       style="fill:#000000;stroke-width:0.189812"
       id="path325"
       d="m 147.74946,87.412745 c 0.25536,-3.851426 -0.39715,-7.699166 -1.34592,-11.358659 -0.21397,-0.825303 -0.47393,-1.631975 -0.71089,-2.447963 -0.36884,-1.522185 -1.12758,-2.847357 -1.57163,-4.329397 -0.0391,-0.13056 -0.1794,-0.371078 -0.0692,-0.408253 0.16713,-0.05636 0.30572,0.202797 0.46916,0.273368 0.30426,0.131383 0.61981,0.220453 0.92972,0.330678 2.9727,1.275803 5.94558,2.545324 8.95835,3.677206 0.3379,0.131239 0.6758,0.262477 1.01371,0.393716 0,0 -1.97502,-1.856601 -1.97502,-1.856601 v 0 c -0.33108,-0.124027 -0.66216,-0.248054 -0.99323,-0.37208 -3.02739,-1.122213 -6.00559,-2.412852 -8.98898,-3.693843 -0.38748,-0.119836 -1.27727,-0.588609 -1.72281,-0.110403 -0.10396,0.111571 0.0335,0.338004 0.0835,0.495138 0.10004,0.314175 0.23968,0.607599 0.36358,0.908969 0.99899,2.429847 0.29594,0.589732 1.33933,3.465448 0.24709,0.814457 0.52032,1.61791 0.74125,2.44337 0.95587,3.571232 1.59847,7.382029 1.21629,11.143331 0,0 2.26277,1.445975 2.26277,1.445975 z" />
    <path
       style="fill:#000000;stroke-width:0.189812"
       id="path327"
       d="m 153.10461,80.113552 c 0.25165,-0.301817 1.25044,-1.637999 1.64169,-1.474446 0.12145,0.05076 0.17922,0.223464 0.26882,0.335194 -0.62171,-0.35588 -1.1793,-1.012783 -1.86514,-1.06764 -0.2738,-0.0219 0.20223,0.620618 0.27841,0.940728 0.0955,0.401108 0.16509,0.810804 0.23569,1.219429 0.0811,0.469311 0.15166,0.941274 0.21921,1.413732 0.065,0.454678 0.0927,0.917777 0.17838,1.367384 0.0621,0.326037 0.17558,0.634429 0.26336,0.951644 0.95363,1.038063 1.14917,1.386452 3.27962,1.170977 0.39024,-0.03947 0.49049,-0.74209 0.71804,-1.129096 2.21008,-3.758765 -0.75194,1.127001 1.32954,-2.510493 0.16893,-0.295205 0.3699,-0.561372 0.55485,-0.842056 0.14847,-0.16027 0.25776,-0.401648 0.44541,-0.480809 0.10748,-0.04534 0.4182,0.217911 0.31486,0.160083 -0.6282,-0.351556 -1.19964,-0.982008 -1.88961,-1.041355 -0.26442,-0.02274 0.20768,0.593974 0.28173,0.903055 0.17102,0.713825 0.24584,1.474052 0.33725,2.205966 0.0443,0.203312 0.12172,1.995299 0.27132,2.131098 0.73978,0.671478 1.5721,1.177723 2.35814,1.766585 0,0 -2.01211,-1.965176 -2.01211,-1.965176 v 0 c 0.65876,0.506352 1.27638,1.101976 1.97629,1.519056 0.11489,0.06847 -0.11683,-0.279358 -0.14858,-0.42991 -0.0591,-0.27985 -0.17116,-1.479102 -0.19126,-1.677548 -0.0988,-0.826841 -0.157,-1.427955 -0.30982,-2.245641 -0.0619,-0.331217 -0.0117,-0.755183 -0.21859,-0.983735 -0.74598,-0.824071 -1.63374,-1.447433 -2.51706,-2.038309 -0.12301,-0.08229 -0.29579,-0.01096 -0.41668,0.07585 -0.17966,0.129003 -0.29391,0.359952 -0.44085,0.53993 -0.18072,0.295641 -0.37353,0.58093 -0.54214,0.886929 -0.7483,1.35799 -0.49759,1.140535 -1.3183,2.476563 -0.22341,0.363686 -0.84116,0.620403 -0.71558,1.047731 0.2574,0.87582 1.13397,1.261953 1.60878,1.991553 0.10526,0.161744 -0.31281,-0.160322 -0.46922,-0.240486 -0.10491,-0.304357 -0.24577,-0.593931 -0.31472,-0.913073 -0.097,-0.448988 -0.11723,-0.917412 -0.17975,-1.375348 -0.0645,-0.472569 -0.12838,-0.945355 -0.20135,-1.416107 -0.0639,-0.412061 -0.13131,-0.823482 -0.20913,-1.231991 -0.0646,-0.339137 -0.0115,-0.768787 -0.21799,-1.01017 -0.72686,-0.849488 -1.6449,-1.418802 -2.46734,-2.128203 -0.13365,-0.04275 -0.26286,-0.135433 -0.40094,-0.128268 -0.51687,0.02682 -1.33107,1.200899 -1.71158,1.594272 0,0 2.19635,1.632109 2.19635,1.632109 z" />
    <path
       style="fill:#000000;stroke-width:0.189812"
       id="path329"
       d="m 167.92174,65.632767 c 0.67711,1.222031 0.93324,2.69472 0.907,4.156333 -0.008,0.461867 -0.0637,0.920709 -0.0956,1.381064 -0.32301,2.401368 -1.09195,4.768523 -2.38405,6.655568 -0.22169,0.323769 -0.47952,0.60839 -0.71927,0.912585 -0.57773,0.58173 -1.28422,1.340889 -2.10149,1.331339 -0.21127,-0.0025 -0.78458,-0.347913 -0.61219,-0.199553 2.87525,2.474546 1.67174,1.128017 1.13978,0.483979 -0.45318,-0.79498 -0.71411,-1.726072 -0.6261,-2.701197 0.0139,-0.154218 0.0169,-0.321325 0.0824,-0.454561 0.0334,-0.06806 0.12186,-0.05677 0.1828,-0.08515 1.17036,0.736398 -1.4146,-0.890086 -1.41579,-0.8905 -0.2514,-0.08751 0.38652,0.430465 0.55523,0.673133 0.20742,0.298369 0.39742,0.615599 0.56982,0.945204 0.49025,0.937266 0.68932,1.57393 1.07251,2.599552 0.47696,1.343614 0.85384,2.73521 1.21658,4.129019 0.20021,0.769291 0.35303,1.554764 0.61169,2.298236 0.79827,0.465614 1.51109,1.327152 2.39481,1.396844 0.33216,0.02619 0.13937,-0.792184 0.17253,-1.194379 0.0579,-0.703027 0.077,-1.410144 0.10036,-2.116111 0.12247,-3.695741 0.0891,-7.386151 0.0459,-11.083253 -0.003,-5.349567 -0.32117,-10.688992 -0.42465,-16.034597 0.0619,-0.606305 -0.0774,-0.470671 0.14272,-0.627099 0,0 -2.21598,-1.621153 -2.21598,-1.621153 v 0 c -0.22914,0.425534 -0.12988,0.150233 -0.16244,0.879744 0.27799,5.382773 0.6455,10.762461 0.64746,16.160858 0.0197,3.662771 0.0317,7.309827 -0.18982,10.965444 -0.0414,0.682836 -0.0991,1.364264 -0.16491,2.04426 -0.0298,0.307109 -0.29836,0.693029 -0.12177,0.915814 0.57521,0.725644 1.40857,1.064008 2.11286,1.596014 -0.34616,-0.705292 -0.48287,-1.514632 -0.69198,-2.292544 -0.37667,-1.401285 -0.7546,-2.804888 -1.22388,-4.165489 -0.44699,-1.262693 -0.87352,-2.509934 -1.56267,-3.613995 -0.15894,-0.254633 -0.30266,-0.541235 -0.52023,-0.720909 -2.47017,-2.039846 -1.70398,-1.976993 -3.1205,-1.926444 -0.0893,0.09792 -0.21001,0.165689 -0.26793,0.293769 -0.0693,0.1533 -0.0783,0.337967 -0.0962,0.5115 -0.10653,1.032633 0.13037,2.042216 0.56151,2.926582 1.04417,1.547134 0.6017,1.057187 3.22183,2.563821 0.20376,0.117164 0.44828,0.113427 0.67261,0.08622 0.84783,-0.102821 1.54487,-0.853198 2.14825,-1.497475 0.24304,-0.317372 0.50426,-0.615568 0.72912,-0.952119 1.02908,-1.54023 1.78271,-3.455925 2.21127,-5.364721 0.1054,-0.469452 0.15683,-0.954356 0.23525,-1.431535 0.041,-0.469627 0.10584,-0.937083 0.12299,-1.408881 0.0534,-1.468161 -0.14166,-2.996735 -0.78119,-4.26225 0,0 -2.35864,-1.262971 -2.35864,-1.262971 z" />
    <path
       style="fill:#000000;stroke-width:0.189812"
       id="path331"
       d="m 171.79857,76.901254 c -1.00759,1.445591 -1.4236,3.290074 -1.77591,5.094217 -0.14008,1.336512 -0.54827,3.393439 0.0452,4.652901 0.0818,0.17352 0.20775,0.310204 0.31163,0.465305 0.86973,0.60625 1.70663,1.287946 2.60918,1.818748 0.16139,0.09491 0.35894,0.05399 0.53732,0.03174 0.92569,-0.115447 1.65809,-0.822575 2.30325,-1.56616 0.96678,-1.396099 1.21957,-2.623665 1.18657,-4.412118 -0.094,-1.187084 -0.29075,-2.216375 -1.07314,-2.99206 -1.74383,-1.233816 -2.44184,-2.597691 -3.81514,-0.964972 0,0 2.19198,1.640778 2.19198,1.640778 v 0 c 0.19612,-0.217893 0.40008,-0.44105 0.67235,-0.505848 0.32309,-0.0769 0.5414,0.114828 0.49749,0.08113 -0.63519,-0.48748 -1.29296,-0.930172 -1.93944,-1.395255 0.90067,0.645506 1.05579,1.542466 1.20034,2.745783 0.0601,1.674165 -0.15908,2.881141 -1.0795,4.184169 -0.60378,0.674236 -1.31752,1.353785 -2.19132,1.333578 -0.16583,-0.0038 -0.61899,-0.240466 -0.48825,-0.116526 0.53966,0.511566 1.16505,0.873532 1.74757,1.310299 -0.11687,-0.123709 -0.25541,-0.222538 -0.35062,-0.37113 -0.69103,-1.078487 -0.2876,-3.277954 -0.16098,-4.496194 0.3463,-1.741688 0.74517,-3.55777 1.76724,-4.91217 0,0 -2.19584,-1.626215 -2.19584,-1.626215 z" />
    <path
       style="fill:#000000;stroke-width:0.189812"
       id="path333"
       d="m 178.6567,88.600846 c 1.22954,-0.865857 2.31088,-2.12019 3.04297,-3.608674 0.17181,-0.349323 0.30057,-0.727322 0.45086,-1.090983 0.11347,-0.358628 0.26783,-0.701947 0.34046,-1.07588 0.43948,-2.262477 -0.58097,-4.314685 -1.44458,-6.209644 -0.35231,-0.789934 -0.67769,-1.488314 -0.98852,-2.300901 -0.22649,-0.592145 -0.43734,-1.053495 -0.40797,-1.715812 0.0235,-0.530228 0.19172,-0.712099 0.42201,-1.123834 0.61529,-0.807716 1.45554,-1.029855 2.31949,-1.134565 0,0 -2.09453,-1.801499 -2.09453,-1.801499 v 0 c -0.92291,0.159076 -1.79387,0.478936 -2.424,1.371251 -0.26128,0.483326 -0.45135,0.707662 -0.49445,1.318711 -0.0531,0.75251 0.14191,1.155644 0.40107,1.834064 0.30692,0.803584 0.64927,1.540786 0.99668,2.320147 0.82838,1.792933 1.91646,3.795324 1.52173,5.961312 -0.0666,0.365361 -0.21563,0.701096 -0.32346,1.051644 -0.14461,0.350298 -0.26844,0.714425 -0.43383,1.050888 -0.71652,1.45764 -1.78528,2.671164 -3.02936,3.436253 0,0 2.14543,1.717522 2.14543,1.717522 z" />
    <path
       style="fill:#000000;stroke-width:0.189812"
       id="path335"
       d="m 75.820527,86.649782 c -0.78703,-1.374355 -1.433721,-2.852401 -2.047685,-4.347899 -0.737983,-1.921856 -1.359303,-3.953415 -1.349916,-6.104905 0.0026,-0.562423 0.06315,-1.122247 0.09469,-1.68337 0.335803,-2.660755 0.908251,-5.323533 1.933666,-7.727267 0.776855,-1.821065 1.152878,-2.262025 2.1966,-3.923497 3.247931,-4.757812 7.320184,-8.540559 11.560615,-11.902312 0.942156,-0.74693 1.90689,-1.451004 2.860334,-2.176506 3.301264,-2.399035 6.741969,-4.513015 10.324869,-6.218334 1.7891,-0.851545 2.31824,-1.03691 4.09326,-1.756266 3.3944,-1.362209 6.93888,-1.962093 10.4747,-2.476174 2.98239,-0.402184 5.97338,-0.636309 8.97142,-0.758901 0.58729,-0.01395 1.17453,-0.03053 1.76185,-0.04185 1.56324,-0.03012 2.24202,-0.05977 3.83042,0.05282 3.21351,0.227757 6.41073,0.725345 9.60755,1.164605 4.40839,0.573488 8.80557,1.332342 13.15246,2.400263 0.60546,0.148746 4.61504,1.226002 5.25957,1.398643 4.82049,1.337131 9.65282,2.611649 14.48674,3.875136 4.21055,1.123334 8.45913,2.047505 12.61782,3.436935 1.95205,0.734584 3.92733,1.476157 5.77356,2.55675 0.35816,0.209628 1.44878,0.738153 1.05436,0.67725 -0.44332,-0.06846 -0.80661,-0.467513 -1.20991,-0.701269 0.26695,0.28654 0.5579,0.543161 0.80084,0.859619 1.21869,1.587423 2.09361,3.861027 2.63335,5.90281 0.20396,0.771636 0.3516,1.563584 0.52741,2.345376 0.96416,5.240094 1.21007,10.631287 1.2801,15.985564 -0.003,2.611277 -0.2047,5.397739 -1.55285,7.559012 -0.2466,0.395331 -0.55471,0.728056 -0.83209,1.092083 -0.36692,0.348116 -0.71254,0.732182 -1.10079,1.044347 -0.85428,0.686872 -2.1982,1.48471 -3.11784,1.988366 -1.71703,0.940381 -3.4938,1.716733 -5.25708,2.51615 -2.33034,1.03845 -4.65461,2.099626 -7.03809,2.948572 -1.74063,0.619979 -2.05986,0.682898 -3.83881,1.198391 -4.26594,1.183126 -8.6456,1.619062 -13.00734,1.87075 -4.06344,0.09525 -8.12575,-0.116173 -12.18124,-0.403356 -4.36404,-0.322447 -8.70675,-0.956706 -13.06426,-1.386997 -4.61248,-0.443508 -9.23853,-0.597105 -13.8634,-0.681738 -2.88918,-0.08692 -5.78111,1.45e-4 -8.66962,-0.109854 -1.4933,-0.03871 -2.97943,-0.176568 -4.44608,-0.522018 -1.28228,-0.315242 -2.53425,-0.776497 -3.77934,-1.258078 -0.41599,-0.15445 -0.81211,-0.373349 -1.21383,-0.573354 0,0 2.01556,1.926552 2.01556,1.926552 v 0 c 0.40083,0.195198 0.80108,0.394262 1.21573,0.543404 1.2483,0.470612 2.50638,0.909769 3.78927,1.220351 1.46573,0.317687 2.95,0.422876 4.43779,0.454031 2.86088,0.0672 5.72339,-0.03754 8.58459,0.03045 4.61032,0.07576 9.22243,0.213173 13.81982,0.667619 4.37077,0.456744 8.72796,1.108475 13.10807,1.417024 4.05475,0.282873 8.11701,0.49292 12.17925,0.363178 4.37522,-0.270948 8.77022,-0.708641 13.0491,-1.900778 1.83885,-0.533962 2.05838,-0.567475 3.85602,-1.207497 2.38757,-0.850041 4.71632,-1.91173 7.04807,-2.96041 1.77012,-0.802818 3.54995,-1.591166 5.27371,-2.535006 0.89598,-0.490583 2.34677,-1.347249 3.18196,-2.013391 0.40134,-0.320117 0.7576,-0.71669 1.1364,-1.075034 0.28817,-0.380013 0.6086,-0.727365 0.8645,-1.14004 1.37675,-2.220213 1.59164,-5.067544 1.55644,-7.74719 -0.0981,-4.510012 -0.27757,-9.067774 -0.86132,-13.529435 -0.11079,-0.846675 -0.27015,-1.682916 -0.40521,-2.524375 -0.16098,-0.784227 -0.29212,-1.578386 -0.48293,-2.352682 -0.49266,-1.999106 -1.38954,-4.417762 -2.53501,-6.007277 -0.23786,-0.330062 -0.53012,-0.595885 -0.79519,-0.893828 -1.01442,-0.765909 -2.01562,-1.55833 -3.04331,-2.297727 -1.13886,-0.819366 -2.42076,-1.363561 -3.66062,-1.901018 -0.51212,-0.221984 -1.0227,-0.449857 -1.54017,-0.652631 -0.53188,-0.208421 -1.07137,-0.387079 -1.60705,-0.580619 -4.14863,-1.350604 -8.3823,-2.255782 -12.575,-3.377924 -4.82827,-1.265305 -9.65438,-2.543811 -14.47274,-3.863603 -0.96239,-0.255432 -4.30671,-1.149186 -5.24457,-1.372947 -4.33059,-1.033222 -8.71259,-1.740905 -13.09747,-2.327189 -3.24281,-0.470432 -6.49369,-1.005438 -9.75435,-1.267313 -1.4444,-0.116004 -2.42656,-0.08322 -3.85784,-0.05814 -0.58983,0.01033 -1.17959,0.02602 -1.76937,0.03902 -3.00502,0.0909 -5.9992,0.35806 -8.98559,0.780213 -3.53701,0.536771 -7.08631,1.139829 -10.47249,2.551623 -1.73129,0.729192 -2.32033,0.949452 -4.062821,1.804557 -3.564393,1.749181 -6.981843,3.906026 -10.27297,6.315196 -2.882905,2.208317 -5.764391,4.416512 -8.434067,7.00176 -0.827811,0.801628 -1.62242,1.65312 -2.413031,2.508326 -2.319272,2.508764 -1.881532,2.044105 -3.729498,4.569348 -1.047204,1.639563 -1.47676,2.15428 -2.25734,3.962507 -1.045336,2.421562 -1.611124,5.123013 -2.000278,7.79672 -0.104827,1.411041 -0.19845,1.821923 -0.07331,3.192474 0.150627,1.649526 0.683539,3.205592 1.222551,4.712412 0.58929,1.498264 1.230896,2.965838 1.980877,4.356097 0,0 2.357818,1.253702 2.357818,1.253701 z" />
    <path
       style="fill:#000000;stroke-width:0.189812"
       id="path349"
       d="m 73.879512,194.38318 c 1.141928,-0.32241 2.265894,-0.75931 3.445451,-0.78067 0.396946,0.0591 0.485062,0.046 0.858337,0.20047 0.123635,0.0512 0.474633,0.26315 0.361218,0.18445 -0.577148,-0.40043 -1.142422,-0.83609 -1.754433,-1.15108 -0.187461,-0.0965 0.314801,0.31444 0.461645,0.4857 0.174564,0.20361 0.334337,0.42511 0.501513,0.63767 1.017563,1.4066 1.951093,2.89471 2.891075,4.37673 0.663539,1.07277 1.341322,2.13364 1.979458,3.22911 0.700042,1.16052 1.28971,2.40482 1.872099,3.65437 0.604166,1.2905 1.132983,2.62977 1.596932,4.00249 0.311006,0.81698 0.535354,1.66953 0.742541,2.53074 0.196797,0.73816 0.228918,1.51668 0.258227,2.28572 0,0 2.294656,1.40408 2.294656,1.40408 v 0 c -0.02819,-0.78822 -0.04551,-1.58874 -0.220871,-2.35338 -0.237649,-0.86428 -0.419791,-1.75315 -0.763744,-2.57164 -0.461463,-1.38366 -0.983809,-2.7363 -1.584375,-4.0397 -0.588756,-1.25063 -1.155319,-2.5178 -1.86316,-3.6793 -0.621366,-1.11578 -1.316635,-2.16692 -1.977941,-3.24777 -0.959721,-1.47164 -1.885204,-2.97622 -2.890691,-4.40423 -1.246723,-1.69383 -2.900834,-3.29608 -4.834722,-3.35685 -1.187603,0.0968 -2.320547,0.54158 -3.486628,0.80665 0,0 2.113413,1.78644 2.113413,1.78644 z" />
    <path
       style="fill:#000000;stroke-width:0.189812"
       id="path351"
       d="m 86.780857,214.88845 c 0.436281,0.8361 0.876202,1.66822 1.286051,2.5239 0.263012,0.55182 0.475166,1.13523 0.689196,1.71642 0,0 2.343854,1.30414 2.343854,1.30414 v 0 c -0.213327,-0.59396 -0.437206,-1.18356 -0.688968,-1.75519 -0.411334,-0.84885 -0.830591,-1.69068 -1.277379,-2.51312 0,0 -2.352754,-1.27615 -2.352754,-1.27615 z" />
    <path
       style="fill:#000000;stroke-width:0.189812"
       id="path353"
       d="m 78.160156,223.57433 c 0.553289,-0.61047 1.126851,-1.19508 1.803508,-1.59045 0.119097,-0.0542 0.265752,-0.14411 0.401972,-0.13135 0.117594,0.011 0.426275,0.24439 0.323413,0.17431 -2.10931,-1.437 -2.609255,-1.92507 -1.77343,-1.14517 0.480401,0.54361 0.954037,1.09704 1.420584,1.65841 0.392415,0.44067 0.679392,0.97058 0.904586,1.55461 0.165391,0.56439 0.339422,0.94771 0.01894,1.46747 -0.417597,0.48687 -0.941798,0.80661 -1.459515,1.10644 0,0 2.145162,1.71611 2.145162,1.71611 v 0 c 0.546186,-0.33719 1.101702,-0.68732 1.532377,-1.22831 0.391504,-0.65998 0.303109,-1.01935 0.104964,-1.75638 -0.203912,-0.61603 -0.467692,-1.19707 -0.866996,-1.65882 -0.453467,-0.58375 -0.960983,-1.10135 -1.413891,-1.68658 -0.879372,-1.00151 -0.329143,-0.41229 -2.649456,-1.95678 -0.266495,-0.17739 -0.602558,0.0447 -0.841046,0.17035 -0.67723,0.44798 -1.261409,1.0556 -1.844645,1.66349 0,0 2.193481,1.64265 2.193481,1.64265 z" />
    <path
       style="fill:#000000;stroke-width:0.189812"
       id="path355"
       d="m 81.17693,222.15444 c 1.109586,-0.26122 2.210128,-0.5333 3.34192,-0.58618 0.986458,0.0217 1.989731,-0.053 2.955513,0.22794 0.112457,0.0368 0.226555,0.0668 0.337358,0.11034 0.165978,0.0651 0.454288,0.21566 0.608463,0.30992 0.101071,0.0617 0.395176,0.26794 0.297021,0.19958 -2.168293,-1.51031 -2.511765,-1.77008 -1.637894,-1.12095 1.16763,0.91411 2.394386,1.70764 3.59639,2.55213 0.909462,0.56325 0.512594,0.3236 -1.733659,-1.22264 -0.06909,-0.0475 0.135731,0.10019 0.202955,0.15154 0.169421,0.12939 0.332788,0.26955 0.499293,0.40433 0.307737,0.26663 0.620455,0.52501 0.918628,0.80743 0.783763,0.54834 1.567526,1.09667 2.351295,1.64502 0,0 -2.019164,-1.96664 -2.019164,-1.96664 v 0 c 0.692145,0.49085 1.384283,0.98171 2.076428,1.47257 -0.322007,-0.24048 -0.603814,-0.56196 -0.921916,-0.81173 -1.073551,-0.91262 -2.220284,-1.69222 -3.37654,-2.44548 -0.948016,-0.63529 -0.09283,-0.0651 1.718165,1.2192 0.07,0.0497 -0.143869,-0.0911 -0.21319,-0.14209 -0.235812,-0.1736 -0.465759,-0.36064 -0.700067,-0.53751 -1.290022,-0.95266 -2.551946,-2.10499 -4.047977,-2.50665 -0.980534,-0.20484 -1.981731,-0.15083 -2.973025,-0.14667 -1.145743,0.0834 -2.261696,0.36665 -3.391697,0.59715 0,0 2.1117,1.78939 2.1117,1.78939 z" />
    <path
       style="fill:#000000;stroke-width:0.189812"
       id="path357"
       d="m 91.677595,224.69247 c -0.01497,0.98709 -0.146669,1.96634 -0.329417,2.92648 -0.119344,0.61793 -0.265199,1.22898 -0.445063,1.82501 -0.103265,0.45405 -0.348614,0.81908 -0.529494,1.22551 -0.134338,0.29848 -0.313791,0.53836 -0.54353,0.72944 0,0 2.18455,1.67976 2.18455,1.67976 v 0 c 0.245115,-0.23594 0.454001,-0.50967 0.603039,-0.84708 0.184389,-0.41994 0.43606,-0.79839 0.541642,-1.26636 0.188705,-0.60706 0.330725,-1.23536 0.450148,-1.86742 0.187735,-0.98036 0.302288,-1.98032 0.366127,-2.98351 0,0 -2.298002,-1.42183 -2.298002,-1.42183 z" />
    <path
       style="fill:#000000;stroke-width:0.189812"
       id="path359"
       d="m 84.416568,229.77553 c -0.612772,-0.4269 -2.45523,-1.69867 -1.838311,-1.28068 1.64458,1.11428 3.140546,2.29232 4.904602,3.04888 0.785221,0.34792 1.589347,0.62524 2.418343,0.75967 0.212617,0.0314 0.426529,0.041 0.640369,0.0488 0,0 -2.085177,-1.85638 -2.085177,-1.85638 v 0 c -0.206243,-0.0141 -0.412513,-0.03 -0.616978,-0.068 -0.808574,-0.15817 -1.593671,-0.44231 -2.361451,-0.78686 -0.580788,-0.26686 -1.141219,-0.55839 -1.694345,-0.90284 -0.17459,-0.10873 -0.686337,-0.46172 -0.518875,-0.33754 0.419211,0.31085 5.46438,3.87991 -0.850617,-0.59325 0,0 2.00244,1.96811 2.00244,1.96811 z" />
    <path
       style="fill:#000000;stroke-width:0.189812"
       id="path361"
       d="m 85.973632,217.75496 c -0.804824,-0.0844 -1.612244,-0.31559 -2.424079,-0.2848 -0.443683,0.0168 -0.573106,0.0883 -0.985573,0.22316 -0.121806,0.0679 -0.243611,0.13584 -0.365424,0.20375 0,0 2.135469,1.72638 2.135469,1.72638 v 0 c 0.111754,-0.0552 0.223515,-0.11039 0.335269,-0.16559 1.116688,-0.30212 2.242438,-0.0383 3.35813,0.17336 0,0 -2.053792,-1.87626 -2.053792,-1.87626 z" />
    <path
       style="fill:#000000;stroke-width:0.189812"
       id="path363"
       d="m 87.615908,222.30022 c 0.05905,0.12686 0.118108,0.25372 0.177155,0.38058 0,0 2.346367,1.26887 2.346367,1.26887 v 0 c -0.05788,-0.11958 -0.115745,-0.23916 -0.173621,-0.35874 0,0 -2.349901,-1.29071 -2.349901,-1.29071 z" />
    <path
       style="fill:#000000;stroke-width:0.264583"
       id="path363-3"
       d="m -297.1958,213.68962 c 0.0907,0.16047 0.18142,0.32094 0.27212,0.48141 0,0 3.60414,1.60505 3.60414,1.60505 v 0 c -0.0889,-0.15126 -0.17779,-0.30253 -0.26669,-0.45379 0,0 -3.60957,-1.63267 -3.60957,-1.63267 z" />
  </g>
</svg>
